<?xml version="1.0" encoding="UTF-8"?><svg xmlns="http://www.w3.org/2000/svg" xmlns:xlink="http://www.w3.org/1999/xlink" viewBox="0 0 1920 1080"><defs><style>.cls-1{fill:#000213;}.cls-2{fill:#eee;}.cls-3{fill:#e9f0fe;}.cls-4{fill:#e9cfa6;}.cls-5{fill:#fff;}.cls-6{fill:#979797;}.cls-7{fill:#666;}.cls-8{fill:#bb834f;}.cls-9{fill:#333;}.cls-10{fill:#b2b9c7;}.cls-11{fill:#d8d8d8;}.cls-12{fill:#d2d2d2;}.cls-13{fill:#dbb68a;}.cls-14{fill:#3677b1;}.cls-15{fill:gray;}.cls-16{fill:#292535;}.cls-17{fill:#58aff3;}.cls-18{fill:#777;}.cls-19{fill:#4f4f4f;}.cls-20{fill:#4d4d4d;}.cls-21{filter:url(#drop-shadow-4);}.cls-22{filter:url(#drop-shadow-2);}.cls-23{filter:url(#drop-shadow-3);}.cls-24{filter:url(#drop-shadow-1);}.cls-25{stroke-width:4px;}.cls-25,.cls-26{fill:none;stroke:gray;stroke-miterlimit:10;}</style><filter id="drop-shadow-1" filterUnits="userSpaceOnUse"><feOffset dx="-4" dy="2"/><feGaussianBlur result="blur" stdDeviation="5"/><feFlood flood-color="#000" flood-opacity=".69"/><feComposite in2="blur" operator="in"/><feComposite in="SourceGraphic"/></filter><filter id="drop-shadow-2" filterUnits="userSpaceOnUse"><feOffset dx="-4" dy="2"/><feGaussianBlur result="blur-2" stdDeviation="5"/><feFlood flood-color="#000" flood-opacity=".69"/><feComposite in2="blur-2" operator="in"/><feComposite in="SourceGraphic"/></filter><filter id="drop-shadow-3" filterUnits="userSpaceOnUse"><feOffset dx="-4" dy="2"/><feGaussianBlur result="blur-3" stdDeviation="5"/><feFlood flood-color="#000" flood-opacity=".69"/><feComposite in2="blur-3" operator="in"/><feComposite in="SourceGraphic"/></filter><filter id="drop-shadow-4" filterUnits="userSpaceOnUse"><feOffset dx="-4" dy="2"/><feGaussianBlur result="blur-4" stdDeviation="5"/><feFlood flood-color="#000" flood-opacity=".69"/><feComposite in2="blur-4" operator="in"/><feComposite in="SourceGraphic"/></filter><image id="image" width="485" height="485" xlink:href="../Projet multimeÌdia (gauthier)/escape game/ADOBE/recherches/natifs/LOGO.png"/></defs><g id="portant" class="cls-24"><g><polygon class="cls-7" points="1252.74 503.94 1255.04 506.92 1248.19 507.96 1248.17 505.12 1248.17 504.96 1252.74 503.94"/><polygon class="cls-9" points="1218.26 486.88 1252.77 503.93 1252.74 503.94 1248.17 504.96 1248.17 505.12 1218.78 490.41 1218.26 486.88"/><polygon class="cls-20" points="1248.17 505.12 1248.19 507.96 1248.01 508.03 1219.3 493.81 1218.78 490.41 1248.17 505.12"/><polygon class="cls-6" points="1219.3 493.81 1241.18 639.11 1236.17 644.12 1215.17 492.11 1209.35 488.89 1219.3 493.81"/><polygon class="cls-20" points="1215.17 492.11 1236.17 644.12 1228.17 640.12 1206.44 489.04 1206.73 487.59 1209.35 488.89 1215.17 492.11"/><polygon class="cls-20" points="1218.78 490.41 1219.3 493.81 1209.35 488.89 1206.76 487.45 1207.34 484.69 1218.78 490.41"/><polygon class="cls-9" points="1218.26 486.88 1218.78 490.41 1207.34 484.69 1207.94 481.79 1218.26 486.88"/><polygon class="cls-6" points="1216.18 473.12 1218.26 486.88 1207.94 481.79 1210.17 471.12 1216.18 473.12"/><polygon class="cls-15" points="1210.17 471.12 1207.94 481.79 1205.33 480.5 1207.61 470.27 1210.17 471.12"/><polygon class="cls-20" points="1209.35 488.89 1206.73 487.59 1206.76 487.45 1209.35 488.89"/><polygon class="cls-15" points="1207.94 481.79 1207.34 484.69 1204.7 483.36 1205.33 480.5 1207.94 481.79"/><polygon class="cls-20" points="1207.61 470.27 1205.33 480.5 1198.4 477.07 1200.17 469.12 1207.65 470.08 1207.61 470.27"/><polygon class="cls-15" points="1207.34 484.69 1206.76 487.45 1206.16 487.12 1206.18 487.32 1204.05 486.26 1204.7 483.36 1207.34 484.69"/><polygon class="cls-20" points="1206.16 487.12 1206.76 487.45 1206.73 487.59 1206.18 487.32 1206.16 487.12"/><polygon class="cls-20" points="1206.18 487.32 1206.73 487.59 1206.44 489.04 1206.18 487.32"/><polygon class="cls-15" points="1206.18 487.32 1206.44 489.04 1166.16 682.12 1159.17 688.11 1204.05 486.26 1206.18 487.32"/><polygon class="cls-20" points="1198.4 477.07 1205.33 480.5 1204.7 483.36 1197.78 479.91 1198.4 477.07"/><polygon class="cls-20" points="1204.7 483.36 1204.05 486.26 1197.13 482.83 1197.78 479.91 1204.7 483.36"/><polygon class="cls-20" points="1204.05 486.26 1159.17 688.11 1152.16 686.12 1197.13 482.83 1204.05 486.26"/><polygon class="cls-9" points="1198.4 477.07 1197.78 479.91 1075.24 418.59 1074.82 416.04 1198.4 477.07"/><polygon class="cls-20" points="1075.24 418.59 1197.78 479.91 1197.13 482.83 1075.97 422.8 1075.24 418.59"/><polygon class="cls-20" points="1101.35 568.9 1104.25 585.6 1095.1 586.65 1093 572.67 1101.35 568.9"/><polygon class="cls-7" points="1075.97 422.8 1101.35 568.9 1093 572.67 1069.85 419.76 1075.97 422.8"/><polygon class="cls-9" points="1093 572.67 1095.1 586.65 1090.52 585.67 1088.98 574.47 1093 572.67"/><polygon class="cls-20" points="1093 572.67 1088.98 574.47 1068.29 423.6 1068.7 419.19 1069.85 419.76 1093 572.67"/><polygon class="cls-20" points="1075.97 422.8 1069.85 419.76 1069.21 415.57 1075.24 418.59 1075.97 422.8"/><polygon class="cls-9" points="1074.82 416.04 1075.24 418.59 1069.21 415.57 1069.09 414.78 1069.03 415.49 1062.88 412.42 1063.1 410.25 1074.82 416.04"/><polygon class="cls-7" points="1074.82 416.04 1063.1 410.25 1064.42 395.8 1071.28 395.76 1074.82 416.04"/><polygon class="cls-20" points="1069.85 419.76 1068.7 419.19 1069.03 415.49 1069.21 415.57 1069.85 419.76"/><polygon class="cls-20" points="1069.03 415.49 1068.7 419.19 1062.53 416.14 1062.88 412.42 1069.03 415.49"/><polygon class="cls-20" points="1068.29 423.6 1053.29 590.58 1046.15 593.8 1062.53 416.14 1068.7 419.19 1068.29 423.6"/><polygon class="cls-6" points="1064.42 395.8 1063.1 410.25 1058.74 408.11 1059.85 395.82 1064.42 395.8"/><polygon class="cls-6" points="1063.1 410.25 1062.88 412.42 1058.55 410.24 1058.74 408.11 1063.1 410.25"/><polygon class="cls-6" points="1058.55 410.24 1062.88 412.42 1062.53 416.14 1058.2 413.99 1058.55 410.24"/><polygon class="cls-6" points="1062.53 416.14 1046.15 593.8 1041.72 595.78 1058.2 413.99 1062.53 416.14"/><polygon class="cls-9" points="1046.15 401.89 1058.74 408.11 1058.55 410.24 1043.87 402.9 1046.15 401.89"/><polygon class="cls-7" points="1058.55 410.24 1058.2 413.99 1043.89 406.9 1043.87 402.9 1058.55 410.24"/><polygon class="cls-20" points="1053.29 590.58 1051.16 614.12 1044.17 615.12 1046.15 593.8 1053.29 590.58"/><polygon class="cls-6" points="1046.15 593.8 1044.17 615.12 1040.16 613.12 1041.72 595.78 1046.15 593.8"/></g></g><g id="ASTRONAUTE" class="cls-22"><line class="cls-13" x1="1093.36" y1="445.39" x2="1092.86" y2="435.89"/><g><path class="cls-8" d="m1126.57,468.35c2.65,3.03-2.21,1.89-2.21,1.89l-2.87-2.23.37-.06,1.03-1.71c.09,0,.14-.04.14-.15,0-.76.89-.76,3.54,2.26Z"/><path class="cls-8" d="m1122.89,466.24l-1.03,1.71-.37.06-1.53-1.19-27.35-21.28c-.5-.39-1.05-.71-1.63-.94-.81-.32-1.65-.48-2.49-.48-.46,0-.91.05-1.36.14-1.27.26-2.45.88-3.41,1.83l-29.86,29.86-1.63-1.63c.63-.62,1.13-1.37.63-1.37-1,0-1-1,0-2,.34-.34,3.44-3.21,7.39-6.97,7.7-7.33,18.61-18.05,18.61-20.03,0-.8.14-1.81.48-2.86.94-2.91,3.39-6.14,8.52-6.14h1c6.19,0,9.41,5.43,9.41,7.69s22.11,19.66,22.99,20.42c.89.76.89,1.51,0,1.51-.76,0,1.09,1.67,1.63,1.67Z"/><polygon class="cls-4" points="1119.96 466.82 1121.49 468.01 1050.28 479.53 1053.26 476.56 1053.34 476.64 1119.86 466.95 1119.96 466.82"/><path class="cls-8" d="m1050.28,479.53l-.92.92s-5.5,1.5-2.5-2.5,4-4,4-3c0,.5.75,0,1.37-.63l1.63,1.63-.6.61-2.98,2.97Z"/></g><g><g><g><path class="cls-3" d="m1136.32,521.09c2.69,5.63,4.31,11.06-1.81,15.03,4.38-6.21,1.97-10.48-1.3-14.51l-1.3-8.55c-.99-10.88-4.54-20.16-10.58-27.89.71-.63,1.32-1.13,1.51-1.13.52,0-2.85-3.63-2.85-3.63,0,0-.09.05-.26.13v-1.3c5.75,6.2,13.54,17.69,14.51,35.11.1,2.19,1.03,4.46,2.07,6.74Z"/><path class="cls-11" d="m1133.21,521.61c3.27,4.03,5.67,8.3,1.3,14.51-2.44,1.41-4.61,1.91-6.22.52-1.36-1.28-.09-2.54,2.85-6.74,0,0,.78-3.11-.52-3.11s-3.63,7.26-4.92,7c-.84-.17-1.36-1.11-1.54-2.6,2.28-4.17,2.37-8.52,1.54-12.94-1.19-4.2-3.23-7.51-5.96-10.1v-21.49c.5-.48,1.08-1.02,1.6-1.49,6.04,7.73,9.58,17.02,10.58,27.89l1.3,8.55Z"/><path class="cls-10" d="m1125.69,518.24c.83,4.42.73,8.77-1.54,12.94-.1-.8-.1-1.75-.01-2.84.26-3.11,2.59-11.66-4.15-16.58-.09-.09-.17-.18-.26-.27v-3.34c2.73,2.58,4.77,5.9,5.96,10.1Z"/><path class="cls-17" d="m1119.99,480.41s3.37,3.63,2.85,3.63c-.18,0-.8.49-1.51,1.13-.52-.66-1.05-1.31-1.6-1.95v-2.67c.17-.09.26-.13.26-.13Z"/><path class="cls-1" d="m1120.02,457.73l1.3,9.33c-.76,1.63-3.03,2.65-5.33,2.72-.66-.27-1.39-.43-2.21-.47.42-1.39.72-2.94.88-4.7.11-1.17.17-2.43.17-3.78,0-1.48-.09-2.82-.27-4.04,2.31-.4,4.95-1.04,5.45.94Z"/><path class="cls-14" d="m1121.34,485.16c-.52.47-1.1,1.01-1.6,1.49v-3.44c.55.64,1.09,1.29,1.6,1.95Z"/><path class="cls-19" d="m1119.73,511.49v14.53c-.06,1.63-.2,2.95-.48,3.77-.23-7.94-1.69-15.48-4.18-22.68.08.05,1.34.86,4.66,4.39Z"/><path class="cls-10" d="m1115.07,507.1c2.48,7.2,3.95,14.74,4.18,22.68-.2.57-.46.89-.81.89l-4.07-13.24c-.92-5.05-2.23-9.97-3.96-14.75,3.64,1.27,6.78,3.04,9.33,5.45v3.34c-3.32-3.53-4.58-4.34-4.66-4.39Z"/><path class="cls-11" d="m1119.73,486.66v21.49c-2.54-2.41-5.69-4.18-9.33-5.45,1.73,4.78,3.04,9.69,3.96,14.75l-5.26-17.08,2.23-24.69.41.04c2.31,1.78,4.42,3.68,6.34,5.7-1.27.68-2.83,1.55-3.53,2.12l3.89,4.41s.57-.57,1.3-1.27Z"/><path class="cls-14" d="m1119.73,483.21v3.44c-.73.7-1.3,1.27-1.3,1.27l-3.89-4.41c.71-.57,2.27-1.44,3.53-2.12.57.59,1.11,1.2,1.65,1.81Z"/><path class="cls-17" d="m1119.73,480.54v2.67c-.53-.62-1.08-1.22-1.65-1.81.7-.38,1.32-.69,1.65-.86Z"/><path class="cls-3" d="m1119.73,479.24v1.3c-.33.17-.94.48-1.65.86-1.92-2.02-4.03-3.92-6.34-5.7l-.41-.04.05-.53c.72-.46,1.42-.95,2.13-1.46,0,0,2.73,1.81,6.22,5.57Z"/><path class="cls-19" d="m1119.73,474.45v4.79c-3.49-3.76-6.22-5.57-6.22-5.57.06-.34.05-.63-.06-.91-.09-.21-.23-.42-.46-.65-.08-.08-.16-.16-.23-.22.37-.73.69-1.52.96-2.37.72.2,1.5.28,2.27.25,1.79.74,3.01,2.33,3.74,4.67Z"/><path class="cls-10" d="m1119.25,529.78c.03.96.04,1.92.03,2.89-1.12.19-2.23.37-3.35.52-.12-5.39-.63-10.64-1.57-15.76l4.07,13.24c.35,0,.61-.32.81-.89Z"/><path class="cls-18" d="m1119.28,532.68c-.01.85-.03,1.7-.07,2.55-1.08.18-2.17.35-3.25.51,0-.85,0-1.69-.03-2.54,1.12-.16,2.23-.33,3.35-.52Z"/><path class="cls-19" d="m1118.46,596.95c.56,1.14.71,2.24.46,3.43-.45,2.15-1.94,3.52-4.41,4.15l-12.44-.52c-3.23-.98-5.68-3.08-5.96-6.48,1.96,1.83,4.13,3.39,7.29,3.63h10.88c2.41-.9,4.23-2.09,4.17-4.21Z"/><path class="cls-10" d="m1119.21,535.23c-.09,2.08-.26,4.19-.53,6.33-.96.32-1.94.62-2.94.92.14-2.27.21-4.51.21-6.74,1.09-.16,2.17-.33,3.25-.51Z"/><path class="cls-17" d="m1118.68,541.56c-.08.6-.16,1.21-.24,1.82l-.36,2.01-2.6.6c.11-1.18.19-2.34.26-3.51,1-.3,1.98-.6,2.94-.92Z"/><path class="cls-12" d="m1118.46,596.95c.06,2.12-1.76,3.31-4.17,4.21h-10.88c-3.13-.33-3.75-8.49-3.82-18.35v-.05h4.47v.05c.37,7.13,3.03,11.49,10.59,9.94l.18-.19c1.78,1.67,2.99,3.06,3.64,4.39Z"/><path class="cls-10" d="m1118.08,545.39l-5.08,28.31-2.78-.04v-.3c2.71-9.45,4.47-18.58,5.26-27.37l2.6-.6Z"/><path class="cls-18" d="m1115.93,533.2c.02.84.03,1.69.03,2.54-16.53,2.39-33.16,1.58-49.86-1.51,0-.87,0-1.73.03-2.58,16.68,3.09,33.29,3.91,49.81,1.55Z"/><path class="cls-19" d="m1115.99,469.78c-.77.03-1.54-.05-2.27-.25.02-.07.04-.14.06-.21.81.04,1.55.19,2.21.47Z"/><path class="cls-11" d="m1115.96,535.74c0,2.22-.08,4.47-.21,6.74-6.53,1.94-14.03,3.52-22,4.92h-.06s-.38-6.87-.38-6.87l-2.85-.52c0,.09,0,.17,0,.26l-3.36-.77c.13,2.48.19,4.99.18,7.51-7.27-1.34-14.82-2.99-20.89-4.8-.18-2.69-.28-5.34-.28-7.97,16.7,3.09,33.33,3.89,49.86,1.51Z"/><path class="cls-17" d="m1115.74,542.48c-.07,1.16-.16,2.33-.26,3.51l-21.6,4.95-.19-3.54h.06c7.97-1.4,15.47-2.98,22-4.92Z"/><path class="cls-11" d="m1093.88,550.93l21.6-4.95c-.79,8.79-2.55,17.92-5.25,27.37v.3s-15.11-.22-15.11-.22l-1.24-22.5Z"/><path class="cls-12" d="m1114.82,592.56l-.18.19c-5.19-1.82-9.55-4.01-5.7-9.82l-4.88-.12v-.05h7.65l-.03,7c1.2,1.03,2.25,1.95,3.15,2.8Z"/><path class="cls-3" d="m1063.5,455.36c1.54-10.99,10.74-9.93,25.43-10.32,14.08-.37,23.93-.13,25.65,11.76.18,1.22.27,2.57.27,4.04,0,1.35-.06,2.61-.17,3.78l-.35-.04c0-.38-1.75-.08-5.24-2.88,1.03-2.45,1.58-5.14,1.58-7.98,0-9.55-3.14,1.95-12.67-.39l-14.83,1.35c-.61-.04-1.35.01-2.27.21-.31.07-.62.14-.91.21,0,0-.01,0-.02,0-8.6,1.72-10.99-5.18-10.99,3.93,0,.09,0,.19,0,.28-1.25.51-1.03,1.7-1.3,6.72-.22,4.14-.59,5.2-.28,5.58l-.19.13-1.37-1.96c-.1,0-.19,0-.29,0-.56-.77-.97-1.42-1.28-2.05-.94-1.91-.9-3.61-.99-7.93-.04-1.67.04-3.14.22-4.45Z"/><path class="cls-3" d="m1114.32,464.58l.35.04c-.17,1.75-.46,3.31-.88,4.7-.18-.01-.36-.01-.55,0l-1.54,2.29s-1.36.84-3.64,1.89l-.12-.24c4.26-7.03,6.37-8.25,6.37-8.66Z"/><path class="cls-11" d="m1114.36,517.44c.93,5.12,1.45,10.37,1.57,15.76-16.51,2.36-33.12,1.54-49.81-1.55.07-3.24.28-6.43.65-9.57l4.2-18.91c.15-.44.31-.88.46-1.32-.06.02-.12.04-.19.07l.29-1.3-3.32-24.1-.1-.74c6.11,3.6,10.88,5.39,21.3,5.16,7.16-.16,12.32-1.15,16.75-3.02,1.83-.77,3.54-1.7,5.22-2.78l-.05.53-2.23,24.69,5.26,17.08Zm-3.44,3.13c0-1.43-1.16-2.59-2.59-2.59s-2.59,1.16-2.59,2.59,1.16,2.59,2.59,2.59,2.59-1.16,2.59-2.59Zm-.78,7.77c0-1.43-1.16-2.59-2.59-2.59s-2.59,1.16-2.59,2.59,1.16,2.59,2.59,2.59,2.59-1.16,2.59-2.59Zm-3.63-13.73c0-1.43-1.16-2.59-2.59-2.59s-2.59,1.16-2.59,2.59,1.16,2.59,2.59,2.59,2.59-1.16,2.59-2.59Zm-5.44-5.7c.9-.29,1.34-.9,1.3-1.81v-9.85c-.27-.77-.96-1.4-2.59-1.3l-16.58.26c-.79.29-1.3.76-1.3,1.55v10.11c.08,1.09.73,1.46,1.81,1.3l17.36-.26Zm-19.69-16.97c0-2.51-2.03-4.53-4.53-4.53s-4.53,2.03-4.53,4.53,2.03,4.53,4.53,4.53,4.53-2.03,4.53-4.53Zm-.52,22.67c0-1.43-1.16-2.59-2.59-2.59s-2.59,1.16-2.59,2.59,1.16,2.59,2.59,2.59,2.59-1.16,2.59-2.59Zm-3.63,13.73c0-1.43-1.16-2.59-2.59-2.59s-2.59,1.16-2.59,2.59,1.16,2.59,2.59,2.59,2.59-1.16,2.59-2.59Zm-.78-7.77c0-1.43-1.16-2.59-2.59-2.59s-2.59,1.16-2.59,2.59,1.16,2.59,2.59,2.59,2.59-1.16,2.59-2.59Z"/><path class="cls-19" d="m1113.72,469.53c-.27.86-.59,1.65-.96,2.37-.39-.34-.67-.44-1.06-.3l1.54-2.29c.19,0,.37,0,.55,0-.02.07-.04.14-.06.21Z"/><path class="cls-18" d="m1112.77,573.95c.69.6.83,1.32.78,2.07h-19.43c0-1.04,0-1.72,1.21-2.58l17.44.51Z"/><path class="cls-3" d="m1113.46,472.76c.11.28.12.57.06.91-.71.52-1.42,1-2.13,1.46l.1-1.15c.61-.37,1.24-.76,1.88-1.19l.09-.03Z"/><path class="cls-19" d="m1094.11,576.02h19.43c-.14,1.01-.61,1.74-1.55,2.07h-16.32c-.94-.47-1.55-1.04-1.55-2.07Z"/><path class="cls-10" d="m1113.46,472.76l-.09.03c-.64.42-1.26.82-1.88,1.19v-.06c.48-.61.91-1.29,1.28-2.02.07.06.15.14.23.22.23.23.37.44.46.65Z"/><path class="cls-18" d="m1111.96,578.1c.69.6,1.54,1.83,1.48,2.59h-19.43c0-1.04,0-1.72,1.21-2.58h16.74Z"/><path class="cls-19" d="m1094.01,580.69h19.43c-.13,1.01-.61,1.74-1.55,2.07h-16.32c-.93-.47-1.55-1.04-1.55-2.07Z"/><path class="cls-19" d="m1114.64,592.75c-7.56,1.55-10.22-2.81-10.59-9.94l4.88.12c-3.85,5.81.52,8,5.7,9.82Z"/><path class="cls-10" d="m1111.7,471.6c.39-.14.67-.04,1.06.3-.37.73-.8,1.41-1.27,2.02l.21-2.32Z"/><path class="cls-10" d="m1111.7,471.6l-.21,2.32s-.05.08-.09.11c-6.62,3.92-12.08,4.57-17.84,5.34-2.73.22-5.25.22-7.58.04-3.45-.58-6.79-1.64-10.04-2.89-2.8-1.08-6.12-1.96-8.19-3.98,2.17,1,4.12,1.84,6.1,2.52,4.44,1.54,9.02,2.32,16.6,2.49,7.05.16,13.68-2.26,17.61-4.07,2.28-1.05,3.64-1.89,3.64-1.89Z"/><path class="cls-10" d="m1111.41,474.03s.06-.08.09-.11v.06s-.06.03-.09.05Z"/><path class="cls-3" d="m1111.49,473.98l-.1,1.15c-1.67,1.08-3.38,2-5.22,2.78v-.03c2.14-.89,3.89-2.14,5.24-3.85.03-.02.05-.03.08-.05Z"/><circle class="cls-10" cx="1108.33" cy="520.57" r="2.59"/><path class="cls-16" d="m1104.52,458.58c-5.23-2.48-11.48-2.27-17.89-1.85-.96-.95-1.68-1.93-3.46-2.06l14.83-1.35c9.53,2.34,12.67-9.15,12.67.39,0,2.84-.56,5.53-1.58,7.98-.23-.19-.47-.39-.72-.6-1.2-1.05-2.49-1.87-3.85-2.52Z"/><circle class="cls-10" cx="1107.56" cy="528.35" r="2.59"/><path class="cls-5" d="m1111.41,474.03c-1.35,1.71-3.1,2.95-5.25,3.85-3.71,1.53-8.6,2.02-14.66,2.02-1.87,0-3.71-.17-5.51-.48,2.34.18,4.85.18,7.58-.04,5.77-.77,11.22-1.42,17.84-5.34Z"/><path class="cls-11" d="m1109.08,461.7c3.48,2.8,5.24,2.51,5.24,2.88,0,.41-2.11,1.64-6.37,8.66l.12.24c-3.92,1.81-10.56,4.23-17.61,4.07-7.58-.18-12.17-.95-16.6-2.49l.03-.1c-4.53-3.56-6.08-2.87-6.48-3.36-.3-.38.06-1.44.28-5.58.27-5.02.05-6.21,1.3-6.72.05,4.66,1.5,8.01,4.04,10.35,3.56,3.26,9.28,4.53,16.39,4.53,9.24,0,16.58-5.12,19.66-12.49Z"/><path class="cls-16" d="m1104.52,458.58c1.36.65,2.64,1.47,3.85,2.52.25.22.48.41.72.6-3.09,7.36-10.43,12.49-19.66,12.49-7.12,0-12.83-1.26-16.39-4.53h.62s3.89-12.45,3.89-12.45c1.95-.02,3.91-.13,5.88-.26,1.05.34,2.16.54,3.45,0-.08-.07-.15-.15-.23-.22,6.41-.42,12.66-.63,17.89,1.85Z"/><path class="cls-3" d="m1106.15,477.87v.03c-4.41,1.87-9.57,2.86-16.74,3.02-10.42.24-15.19-1.56-21.3-5.16l-.28-2.04c5.06,2.75,10.69,5.12,18.14,5.68,1.81.3,3.64.48,5.51.48,6.07,0,10.96-.48,14.66-2.02Z"/><circle class="cls-10" cx="1103.93" cy="514.61" r="2.59"/><path class="cls-11" d="m1102.37,507.1c.04.92-.39,1.52-1.3,1.81l-17.36.26c-1.08.16-1.74-.21-1.81-1.3v-10.11c0-.8.51-1.26,1.3-1.55l16.58-.26c1.63-.1,2.32.53,2.59,1.3v9.85Zm-7.26-3.63v-1.55c0-.88-.31-1.68-.83-2.31-.07-.09-.15-.17-.23-.26-.66-.66-1.56-1.06-2.57-1.06-2,0-3.63,1.62-3.63,3.63v1.55c0,.91.33,1.74.88,2.37,0,0,0,0,0,0,.09.15.21.28.37.37,0,0,0,0,0,0,.63.55,1.46.88,2.37.88s1.79-.35,2.43-.93c.74-.66,1.2-1.62,1.2-2.69Z"/><path class="cls-18" d="m1099.58,582.81c.07,9.86.69,18.02,3.82,18.35-3.16-.23-5.32-1.79-7.29-3.63l-.74-14.77h4.21v.05Z"/><path class="cls-18" d="m1095.12,501.92v1.55c0,1.07-.46,2.03-1.2,2.69l-.1-.11c.16-.16.26-.39.26-.64,0-.5-.4-.91-.91-.91v-.78c.5,0,.91-.41.91-.91s-.4-.91-.91-.91v-.78c.5,0,.91-.41.91-.91,0-.22-.08-.42-.21-.58l.41-.05c.52.63.83,1.43.83,2.31Z"/><path class="cls-18" d="m1094.29,499.61l-.41.05c-.17-.2-.42-.33-.7-.33-.5,0-.91.4-.91.91s.41.91.91.91v.78c-.5,0-.91.4-.91.91s.41.91.91.91v.78c-.5,0-.91.4-.91.91s.41.91.91.91c.25,0,.48-.1.64-.27l.1.11c-.64.58-1.49.93-2.43.93s-1.74-.33-2.37-.88c.13.07.27.11.43.11.5,0,.91-.41.91-.91s-.4-.91-.91-.91-.91.4-.91.91c0,.16.04.3.11.43-.55-.63-.88-1.46-.88-2.37v-1.55c0-2,1.62-3.63,3.63-3.63,1,0,1.91.41,2.57,1.06.08.08.16.17.23.26Zm-3.84.62c0-.5-.4-.91-.91-.91s-.91.4-.91.91.41.91.91.91.91-.41.91-.91Zm0,2.59c0-.5-.4-.91-.91-.91s-.91.4-.91.91.41.91.91.91.91-.41.91-.91Z"/><path class="cls-10" d="m1093.87,499.65c.13.16.21.36.21.58,0,.5-.4.91-.91.91s-.91-.41-.91-.91.41-.91.91-.91c.28,0,.53.13.7.33Z"/><circle class="cls-10" cx="1093.17" cy="502.82" r=".91"/><path class="cls-10" d="m1093.17,504.51c.5,0,.91.4.91.91,0,.25-.1.48-.26.64-.16.17-.39.27-.64.27-.5,0-.91-.41-.91-.91s.41-.91.91-.91Z"/><path class="cls-10" d="m1087.08,539.49l3.36.77c-.06,2.43-.12,4.86-.22,7.26h-.04c-.97-.17-1.94-.35-2.93-.53.01-2.52-.05-5.02-.18-7.51Z"/><circle class="cls-10" cx="1089.55" cy="500.23" r=".91"/><circle class="cls-10" cx="1089.55" cy="502.82" r=".91"/><path class="cls-10" d="m1089.55,504.51c.5,0,.91.4.91.91s-.4.91-.91.91c-.16,0-.3-.04-.43-.11,0,0,0,0,0,0-.13-.11-.25-.24-.37-.37,0,0,0,0,0,0-.07-.13-.11-.27-.11-.43,0-.5.41-.91.91-.91Z"/><path class="cls-17" d="m1090.19,547.52h.04c-.04,1.04-.09,2.07-.14,3.09l-2.87-.63c.03-1,.04-2,.04-2.99.98.18,1.96.36,2.93.53Z"/><path class="cls-10" d="m1087.23,549.98l2.87.63c-.42,8.37-1.26,16.36-3.27,23.34l-1.96-.06c1.33-8.11,2.17-16.09,2.37-23.91Z"/><path class="cls-10" d="m1088.75,505.85c.11.13.24.25.37.37-.15-.09-.28-.21-.37-.37Z"/><path class="cls-18" d="m1084.86,573.89l1.96.06c.69.6.84,1.32.78,2.07h-19.43c0-1.03,0-1.72,1.2-2.57l15.49.44Z"/><path class="cls-19" d="m1068.17,576.02h19.43c-.13,1.01-.61,1.74-1.55,2.07h-16.32c-.94-.47-1.55-1.04-1.55-2.07Z"/><path class="cls-18" d="m1086.36,578.11c1.22.86,1.21,1.54,1.21,2.58h-19.43c-.06-.76.64-1.99,1.33-2.59h16.89Z"/><path class="cls-19" d="m1068.13,580.69h19.43c0,1.04-.62,1.6-1.55,2.07h-8.41s-.11,0-.11,0h-7.81c-.95-.33-1.42-1.06-1.55-2.07Z"/><path class="cls-17" d="m1087.27,546.99c0,.99-.02,1.99-.04,2.99l-20.58-4.48c-.1-1.1-.19-2.21-.27-3.3,6.07,1.81,13.62,3.46,20.89,4.8Z"/><path class="cls-11" d="m1066.64,545.5l20.58,4.48c-.2,7.82-1.03,15.8-2.37,23.91l-12.81-.37v-.09c-2.73-9.55-4.56-18.9-5.41-27.93Z"/><path class="cls-5" d="m1086.63,456.74c.08.07.15.15.23.22-1.28.54-2.39.34-3.45,0,1.08-.07,2.15-.15,3.22-.22Z"/><path class="cls-18" d="m1086.01,582.76l-.74,14.77s0,.08-.01.11c-1.93,1.79-4.08,3.29-7.17,3.52,3.13-.33,3.75-8.49,3.82-18.35v-.05h4.1Z"/><path class="cls-5" d="m1086.63,456.74c-1.07.07-2.14.15-3.22.22-1.9-.62-3.63-1.7-5.88.26-2.22.76-3.92,1.16-5.23,1.42.88-1.64,3.15-2.48,7.66-3.54,0,0,.01,0,.02,0,.3-.06.6-.13.91-.21l2.27-.21c1.78.13,2.51,1.11,3.46,2.06Z"/><path class="cls-10" d="m1075.94,476.52c3.24,1.25,6.58,2.31,10.04,2.89-7.45-.56-13.09-2.93-18.14-5.68l-.17-1.23s.05.03.08.04c2.08,2.02,5.39,2.9,8.19,3.98Z"/><path class="cls-19" d="m1085.26,597.64c-.32,3.33-2.75,5.39-5.95,6.37l-12.44.52c-2.47-.63-3.95-2-4.41-4.15-.26-1.23-.09-2.36.52-3.54l.05.03c-.11,2.17,1.73,3.37,4.17,4.29h10.88c3.09-.23,5.23-1.73,7.17-3.52Z"/><path class="cls-5" d="m1083.17,454.67l-2.27.21c.92-.19,1.66-.25,2.27-.21Z"/><path class="cls-12" d="m1081.92,582.76v.05c-.07,9.86-.69,18.02-3.82,18.35h-10.88c-2.44-.91-4.28-2.12-4.17-4.29l-.05-.03c.65-1.27,1.81-2.6,3.49-4.19l.54.05c7.56,1.55,10.22-2.81,10.59-9.94h4.31Z"/><path class="cls-16" d="m1077.53,457.21c2.25-1.96,3.98-.88,5.88-.26-1.97.13-3.94.24-5.88.26Z"/><path class="cls-5" d="m1079.98,455.09c.3-.07.6-.14.91-.21-.31.08-.62.15-.91.21Z"/><circle class="cls-2" cx="1076.85" cy="491.94" r="4.53"/><circle class="cls-10" cx="1078.27" cy="514.61" r="2.59"/><path class="cls-19" d="m1077.5,582.76h.11c-.37,7.13-3.03,11.48-10.59,9.94,5.19-1.83,9.55-4.01,5.7-9.82l4.78-.12Z"/><path class="cls-5" d="m1077.53,457.21l-3.89,12.44c-1.46-5.97-2.39-9.06-1.34-11.02,1.31-.26,3.01-.66,5.23-1.42Z"/><path class="cls-12" d="m1077.5,582.76l-4.78.12c3.85,5.81-.52,7.99-5.7,9.82l-.54-.05c.92-.88,2.01-1.83,3.25-2.89l-.03-7h7.81Z"/><path class="cls-16" d="m1068.98,459.03c0-9.11,2.38-2.21,10.99-3.93-4.51,1.06-6.79,1.89-7.66,3.54-1.66.33-2.68.41-3.32.67,0-.09,0-.19,0-.28Z"/><circle class="cls-10" cx="1074.65" cy="528.35" r="2.59"/><circle class="cls-10" cx="1073.87" cy="520.57" r="2.59"/><path class="cls-3" d="m1073.88,474.97l-.03.1c-1.98-.68-3.93-1.52-6.1-2.52-.03-.03-.06-.06-.09-.09v-.08s-.45-.63-.45-.63l.19-.13c.4.49,1.95-.2,6.48,3.36Z"/><path class="cls-16" d="m1073.64,469.65h-.62c-2.54-2.33-3.99-5.69-4.04-10.34.64-.26,1.66-.34,3.32-.67-1.04,1.95-.12,5.05,1.34,11.02Z"/><path class="cls-10" d="m1072.06,573.43v.09s-2.67-.08-2.67-.08c0,0,0,0-.01.01l-.68-.02c-2.69-8.99-4.12-18.56-4.73-28.5h.07s2.62.56,2.62.56c.85,9.04,2.68,18.38,5.41,27.93Z"/><path class="cls-11" d="m1068.22,476.51l3.32,24.1-.29,1.3c-4.14,1.47-7.65,3.61-10.33,6.61v-25.35c2.01-2.27,4.4-4.45,7.26-6.65h.05Z"/><path class="cls-10" d="m1067.74,506.32c-.08.05-1.41.9-4.92,4.66-.74.54-1.37,1.12-1.9,1.74v-4.2c2.68-3,6.19-5.14,10.33-6.61l-.28,1.26c-2.06,6.02-3.45,12.34-4.2,18.91l-2.07,9.3c-.27-.05-.55-.11-.82-.16.26-7.54.96-14.46,2.48-20.23l.6-2.26c.25-.81.51-1.61.79-2.4Z"/><path class="cls-10" d="m1070.97,503.17l-4.2,18.91c.75-6.56,2.14-12.88,4.2-18.91Z"/><path class="cls-3" d="m1068.12,475.77l.1.74h-.05c-2.85,2.21-5.24,4.39-7.26,6.66v-2.23c2.18-2.68,4.24-4.67,5.78-6l.02-.03c.48.3.95.58,1.41.85Z"/><path class="cls-3" d="m1067.84,473.73l.28,2.04c-.46-.27-.93-.55-1.41-.85-.12-.07-.23-.14-.35-.21-.26-.75-.24-1.33.09-1.75h.02c.46.27.92.52,1.38.78Z"/><path class="cls-10" d="m1067.67,472.5l.17,1.23c-.46-.25-.93-.51-1.38-.77h-.02c.2-.27.51-.46.95-.59.09.04.18.09.28.13Z"/><path class="cls-19" d="m1067.66,472.45v.05c-.09-.04-.18-.08-.27-.13-.44.13-.75.32-.95.58-.33.42-.35,1.01-.09,1.75.12.07.23.14.35.21l-.02.03c-1.53,1.33-3.59,3.32-5.78,6v-6.24c1.03-3.28,1.55-4.89,4.64-4.92.43.6.96,1.27,1.58,2.07.16.21.34.41.53.59Z"/><path class="cls-5" d="m1067.65,472.38v.08c-.18-.19-.35-.39-.52-.59-.63-.8-1.15-1.47-1.58-2.07.09,0,.19,0,.29,0l1.37,1.96.44.63Z"/><path class="cls-19" d="m1063.88,531.22c-.02.6-.04,1.2-.05,1.8-1.05-.94-2.82-4.38-2.91-6.75v-13.55c.54-.62,1.17-1.2,1.9-1.74,3.51-3.77,4.84-4.61,4.92-4.66-.27.8-.54,1.6-.79,2.4l-.6,2.26c-1.52,5.77-2.22,12.69-2.48,20.23Z"/><path class="cls-10" d="m1064.7,531.38l2.07-9.3c-.36,3.14-.58,6.33-.65,9.57-.47-.09-.95-.18-1.42-.27Z"/><path class="cls-17" d="m1066.64,545.5l-2.62-.57h-.07c-.08-1.17-.14-2.36-.19-3.55.83.27,1.71.55,2.61.82.07,1.1.16,2.2.27,3.3Z"/><path class="cls-18" d="m1066.12,531.65c-.02.86-.03,1.72-.03,2.58-.76-.14-1.53-.29-2.29-.44,0-.26.01-.52.02-.77.18.16.33.25.46.25l.42-1.89c.47.09.95.18,1.42.27Z"/><path class="cls-10" d="m1066.1,534.23c0,2.62.1,5.28.28,7.97-.9-.27-1.78-.54-2.61-.82,0-.03,0-.05,0-.08-.02-2.55,0-5.06.04-7.51.76.15,1.53.3,2.29.44Z"/><path class="cls-10" d="m1064.7,531.38l-.42,1.89c-.12,0-.28-.09-.46-.25.02-.61.03-1.2.05-1.8.27.05.55.11.82.16Z"/><path class="cls-1" d="m1063.28,459.81c.1,4.32.05,6.02.99,7.93-1.95.77-3.59,1.24-4.36-.41l-2.07-11.4c.55-2.18,3.25-.94,5.66-.56-.18,1.31-.26,2.78-.22,4.45Z"/><path class="cls-10" d="m1060.91,508.52v4.2c-4.35,4.99-2.47,12.08-2.24,14.85.12,1.49.07,2.74-.16,3.67l-.19-.04c-2.28-4.18-3.01-9.37-2.18-13.8,1.01-3.56,2.63-6.49,4.77-8.87Z"/><path class="cls-11" d="m1060.91,483.17v25.35c-2.14,2.38-3.76,5.31-4.77,8.87-.83,4.43-.11,9.62,2.18,13.8l.19.04c-.25,1.01-.72,1.64-1.39,1.77-1.3.26-3.63-7-4.92-7s-.52,3.11-.52,3.11c2.94,4.2,4.21,5.46,2.85,6.74-.5.43-1.05.68-1.65.77-9.84-4.15-6.57-13.57-3.3-17.6l1.3-8.55c1.1-11.98,3.63-20.07,10.04-27.31Z"/><path class="cls-3" d="m1060.91,480.95v2.23c-6.42,7.24-8.94,15.33-10.04,27.31l-1.3,8.55c-3.27,4.03-6.54,13.45,3.3,17.6-1.33.22-2.88-.32-4.57-1.29-6.13-3.97-4.51-9.4-1.81-15.03,1.04-2.28,1.98-4.55,2.07-6.74.85-15.31,6.98-26.04,12.35-32.63Z"/></g><path class="cls-25" d="m1081.9,497.77v10.11c.08,1.09.73,1.46,1.81,1.3l17.36-.26c.9-.29,1.34-.9,1.3-1.81v-9.85c-.27-.77-.96-1.4-2.59-1.3l-16.58.26c-.79.29-1.3.76-1.3,1.55Z"/></g><use transform="translate(1071.67 486.24) scale(.02)" xlink:href="#image"/></g><path class="cls-26" d="m1088.22,435.45v-3.72s7.46-4.95,3.73-7.43c-3.73-2.48-7.46,1.24-7.46,1.24"/><g><path class="cls-8" d="m1121.86,468.01h-.01l-1.53-1.19-5.44-4.24c0-1.36-.09-5.04-.09-5.04,3.63,2.96,6.52,5.25,6.83,5.51.89.76.89,1.52,0,1.52s1.77,2.27,1.77,1.51.89-.76,3.54,2.27c2.65,3.02-2.21,1.89-2.21,1.89l-2.86-2.23Z"/><polygon class="cls-4" points="1120.32 466.82 1121.85 468.01 1050.58 479.53 1053.47 476.42 1053.7 476.63 1120.22 466.95 1120.32 466.82"/><path class="cls-8" d="m1063.22,465.95l-8.95,9.61-1.52-1.41c.55-.58.93-1.2.47-1.2-1,0-1-1,0-2,.41-.41,4.92-5.11,10-10,0,0-1,4,0,5Z"/><path class="cls-8" d="m1050.58,479.53l-.86.92s-5.5,1.5-2.5-2.5,4-4,4-3c0,.54.89-.1,1.53-.8l1.52,1.41-.8.86-2.89,3.11Z"/></g></g><g id="ASTRONAUTE_2" class="cls-23"><line class="cls-13" x1="1132.36" y1="465.39" x2="1131.86" y2="455.89"/><g><path class="cls-8" d="m1165.57,488.35c2.65,3.03-2.21,1.89-2.21,1.89l-2.87-2.23.37-.06,1.03-1.71c.09,0,.14-.04.14-.15,0-.76.89-.76,3.54,2.26Z"/><path class="cls-8" d="m1161.89,486.24l-1.03,1.71-.37.06-1.53-1.19-27.35-21.28c-.5-.39-1.05-.71-1.63-.94-.81-.32-1.65-.48-2.49-.48-.46,0-.91.05-1.36.14-1.27.26-2.45.88-3.41,1.83l-29.86,29.86-1.63-1.63c.63-.62,1.13-1.37.63-1.37-1,0-1-1,0-2,.34-.34,3.44-3.21,7.39-6.97,7.7-7.33,18.61-18.05,18.61-20.03,0-.8.14-1.81.48-2.86.94-2.91,3.39-6.14,8.52-6.14h1c6.19,0,9.41,5.43,9.41,7.69s22.11,19.66,22.99,20.42c.89.76.89,1.51,0,1.51-.76,0,1.09,1.67,1.63,1.67Z"/><polygon class="cls-4" points="1158.96 486.82 1160.49 488.01 1089.28 499.53 1092.26 496.56 1092.34 496.64 1158.86 486.95 1158.96 486.82"/><path class="cls-8" d="m1089.28,499.53l-.92.92s-5.5,1.5-2.5-2.5,4-4,4-3c0,.5.75,0,1.37-.63l1.63,1.63-.6.61-2.98,2.97Z"/></g><g><g><g><path class="cls-3" d="m1175.32,541.09c2.69,5.63,4.31,11.06-1.81,15.03,4.38-6.21,1.97-10.48-1.3-14.51l-1.3-8.55c-.99-10.88-4.54-20.16-10.58-27.89.71-.63,1.32-1.13,1.51-1.13.52,0-2.85-3.63-2.85-3.63,0,0-.09.05-.26.13v-1.3c5.75,6.2,13.54,17.69,14.51,35.11.1,2.19,1.03,4.46,2.07,6.74Z"/><path class="cls-11" d="m1172.21,541.61c3.27,4.03,5.67,8.3,1.3,14.51-2.44,1.41-4.61,1.91-6.22.52-1.36-1.28-.09-2.54,2.85-6.74,0,0,.78-3.11-.52-3.11s-3.63,7.26-4.92,7c-.84-.17-1.36-1.11-1.54-2.6,2.28-4.17,2.37-8.52,1.54-12.94-1.19-4.2-3.23-7.51-5.96-10.1v-21.49c.5-.48,1.08-1.02,1.6-1.49,6.04,7.73,9.58,17.02,10.58,27.89l1.3,8.55Z"/><path class="cls-10" d="m1164.69,538.24c.83,4.42.73,8.77-1.54,12.94-.1-.8-.1-1.75-.01-2.84.26-3.11,2.59-11.66-4.15-16.58-.09-.09-.17-.18-.26-.27v-3.34c2.73,2.58,4.77,5.9,5.96,10.1Z"/><path class="cls-17" d="m1158.99,500.41s3.37,3.63,2.85,3.63c-.18,0-.8.49-1.51,1.13-.52-.66-1.05-1.31-1.6-1.95v-2.67c.17-.09.26-.13.26-.13Z"/><path class="cls-1" d="m1159.02,477.73l1.3,9.33c-.76,1.63-3.03,2.65-5.33,2.72-.66-.27-1.39-.43-2.21-.47.42-1.39.72-2.94.88-4.7.11-1.17.17-2.43.17-3.78,0-1.48-.09-2.82-.27-4.04,2.31-.4,4.95-1.04,5.45.94Z"/><path class="cls-14" d="m1160.34,505.16c-.52.47-1.1,1.01-1.6,1.49v-3.44c.55.64,1.09,1.29,1.6,1.95Z"/><path class="cls-19" d="m1158.73,531.49v14.53c-.06,1.63-.2,2.95-.48,3.77-.23-7.94-1.69-15.48-4.18-22.68.08.05,1.34.86,4.66,4.39Z"/><path class="cls-10" d="m1154.07,527.1c2.48,7.2,3.95,14.74,4.18,22.68-.2.57-.46.89-.81.89l-4.07-13.24c-.92-5.05-2.23-9.97-3.96-14.75,3.64,1.27,6.78,3.04,9.33,5.45v3.34c-3.32-3.53-4.58-4.34-4.66-4.39Z"/><path class="cls-11" d="m1158.73,506.66v21.49c-2.54-2.41-5.69-4.18-9.33-5.45,1.73,4.78,3.04,9.69,3.96,14.75l-5.26-17.08,2.23-24.69.41.04c2.31,1.78,4.42,3.68,6.34,5.7-1.27.68-2.83,1.55-3.53,2.12l3.89,4.41s.57-.57,1.3-1.27Z"/><path class="cls-14" d="m1158.73,503.21v3.44c-.73.7-1.3,1.27-1.3,1.27l-3.89-4.41c.71-.57,2.27-1.44,3.53-2.12.57.59,1.11,1.2,1.65,1.81Z"/><path class="cls-17" d="m1158.73,500.54v2.67c-.53-.62-1.08-1.22-1.65-1.81.7-.38,1.32-.69,1.65-.86Z"/><path class="cls-3" d="m1158.73,499.24v1.3c-.33.17-.94.48-1.65.86-1.92-2.02-4.03-3.92-6.34-5.7l-.41-.04.05-.53c.72-.46,1.42-.95,2.13-1.46,0,0,2.73,1.81,6.22,5.57Z"/><path class="cls-19" d="m1158.73,494.45v4.79c-3.49-3.76-6.22-5.57-6.22-5.57.06-.34.05-.63-.06-.91-.09-.21-.23-.42-.46-.65-.08-.08-.16-.16-.23-.22.37-.73.69-1.52.96-2.37.72.2,1.5.28,2.27.25,1.79.74,3.01,2.33,3.74,4.67Z"/><path class="cls-10" d="m1158.25,549.78c.03.96.04,1.92.03,2.89-1.12.19-2.23.37-3.35.52-.12-5.39-.63-10.64-1.57-15.76l4.07,13.24c.35,0,.61-.32.81-.89Z"/><path class="cls-18" d="m1158.28,552.68c-.01.85-.03,1.7-.07,2.55-1.08.18-2.17.35-3.25.51,0-.85,0-1.69-.03-2.54,1.12-.16,2.23-.33,3.35-.52Z"/><path class="cls-19" d="m1157.46,616.95c.56,1.14.71,2.24.46,3.43-.45,2.15-1.94,3.52-4.41,4.15l-12.44-.52c-3.23-.98-5.68-3.08-5.96-6.48,1.96,1.83,4.13,3.39,7.29,3.63h10.88c2.41-.9,4.23-2.09,4.17-4.21Z"/><path class="cls-10" d="m1158.21,555.23c-.09,2.08-.26,4.19-.53,6.33-.96.32-1.94.62-2.94.92.14-2.27.21-4.51.21-6.74,1.09-.16,2.17-.33,3.25-.51Z"/><path class="cls-17" d="m1157.68,561.56c-.08.6-.16,1.21-.24,1.82l-.36,2.01-2.6.6c.11-1.18.19-2.34.26-3.51,1-.3,1.98-.6,2.94-.92Z"/><path class="cls-12" d="m1157.46,616.95c.06,2.12-1.76,3.31-4.17,4.21h-10.88c-3.13-.33-3.75-8.49-3.82-18.35v-.05h4.47v.05c.37,7.13,3.03,11.49,10.59,9.94l.18-.19c1.78,1.67,2.99,3.06,3.64,4.39Z"/><path class="cls-10" d="m1157.08,565.39l-5.08,28.31-2.78-.04v-.3c2.71-9.45,4.47-18.58,5.26-27.37l2.6-.6Z"/><path class="cls-18" d="m1154.93,553.2c.02.84.03,1.69.03,2.54-16.53,2.39-33.16,1.58-49.86-1.51,0-.87,0-1.73.03-2.58,16.68,3.09,33.29,3.91,49.81,1.55Z"/><path class="cls-19" d="m1154.99,489.78c-.77.03-1.54-.05-2.27-.25.02-.07.04-.14.06-.21.81.04,1.55.19,2.21.47Z"/><path class="cls-11" d="m1154.96,555.74c0,2.22-.08,4.47-.21,6.74-6.53,1.94-14.03,3.52-22,4.92h-.06s-.38-6.87-.38-6.87l-2.85-.52c0,.09,0,.17,0,.26l-3.36-.77c.13,2.48.19,4.99.18,7.51-7.27-1.34-14.82-2.99-20.89-4.8-.18-2.69-.28-5.34-.28-7.97,16.7,3.09,33.33,3.89,49.86,1.51Z"/><path class="cls-17" d="m1154.74,562.48c-.07,1.16-.16,2.33-.26,3.51l-21.6,4.95-.19-3.54h.06c7.97-1.4,15.47-2.98,22-4.92Z"/><path class="cls-11" d="m1132.88,570.93l21.6-4.95c-.79,8.79-2.55,17.92-5.25,27.37v.3s-15.11-.22-15.11-.22l-1.24-22.5Z"/><path class="cls-12" d="m1153.82,612.56l-.18.19c-5.19-1.82-9.55-4.01-5.7-9.82l-4.88-.12v-.05h7.65l-.03,7c1.2,1.03,2.25,1.95,3.15,2.8Z"/><path class="cls-3" d="m1153.57,476.8c.18,1.22.27,2.57.27,4.04,0,1.35-.06,2.61-.17,3.78l-.35-.04c0-.38-1.75-.08-5.24-2.88,1.03-2.45,1.58-5.14,1.58-7.98,0-9.55-3.14,1.95-12.67-.39l-14.83,1.35c-.61-.04-1.35.01-2.27.21-.31.07-.62.14-.91.21,0,0-.01,0-.02,0-8.6,1.72-10.99-5.18-10.99,3.93,0,.09,0,.19,0,.28-1.25.51-1.03,1.7-1.3,6.72-.22,4.14-.59,5.2-.28,5.58l-.19.13-1.37-1.96c-.1,0-.19,0-.29,0-.56-.77-.97-1.42-1.28-2.05-.94-1.91-.9-3.61-.99-7.93-.04-1.67.04-3.14.22-4.45,1.54-10.99,10.74-9.93,25.43-10.32,14.08-.37,23.93-.13,25.65,11.76Z"/><path class="cls-3" d="m1153.32,484.58l.35.04c-.17,1.75-.46,3.31-.88,4.7-.18-.01-.36-.01-.55,0l-1.54,2.29s-1.36.84-3.64,1.89l-.12-.24c4.26-7.03,6.37-8.25,6.37-8.66Z"/><path class="cls-11" d="m1153.36,537.44c.93,5.12,1.45,10.37,1.57,15.76-16.51,2.36-33.12,1.54-49.81-1.55.07-3.24.28-6.43.65-9.57l4.2-18.91c.15-.44.31-.88.46-1.32-.06.02-.12.04-.19.07l.29-1.3-3.32-24.1-.1-.74c6.11,3.6,10.88,5.39,21.3,5.16,7.16-.16,12.32-1.15,16.75-3.02,1.83-.77,3.54-1.7,5.22-2.78l-.05.53-2.23,24.69,5.26,17.08Zm-3.44,3.13c0-1.43-1.16-2.59-2.59-2.59s-2.59,1.16-2.59,2.59,1.16,2.59,2.59,2.59,2.59-1.16,2.59-2.59Zm-.78,7.77c0-1.43-1.16-2.59-2.59-2.59s-2.59,1.16-2.59,2.59,1.16,2.59,2.59,2.59,2.59-1.16,2.59-2.59Zm-3.63-13.73c0-1.43-1.16-2.59-2.59-2.59s-2.59,1.16-2.59,2.59,1.16,2.59,2.59,2.59,2.59-1.16,2.59-2.59Zm-5.44-5.7c.9-.29,1.34-.9,1.3-1.81v-9.85c-.27-.77-.96-1.4-2.59-1.3l-16.58.26c-.79.29-1.3.76-1.3,1.55v10.11c.08,1.09.73,1.46,1.81,1.3l17.36-.26Zm-19.69-16.97c0-2.51-2.03-4.53-4.53-4.53s-4.53,2.03-4.53,4.53,2.03,4.53,4.53,4.53,4.53-2.03,4.53-4.53Zm-.52,22.67c0-1.43-1.16-2.59-2.59-2.59s-2.59,1.16-2.59,2.59,1.16,2.59,2.59,2.59,2.59-1.16,2.59-2.59Zm-3.63,13.73c0-1.43-1.16-2.59-2.59-2.59s-2.59,1.16-2.59,2.59,1.16,2.59,2.59,2.59,2.59-1.16,2.59-2.59Zm-.78-7.77c0-1.43-1.16-2.59-2.59-2.59s-2.59,1.16-2.59,2.59,1.16,2.59,2.59,2.59,2.59-1.16,2.59-2.59Z"/><path class="cls-19" d="m1152.72,489.53c-.27.86-.59,1.65-.96,2.37-.39-.34-.67-.44-1.06-.3l1.54-2.29c.19,0,.37,0,.55,0-.02.07-.04.14-.06.21Z"/><path class="cls-18" d="m1151.77,593.95c.69.6.83,1.32.78,2.07h-19.43c0-1.04,0-1.72,1.21-2.58l17.44.51Z"/><path class="cls-3" d="m1152.46,492.76c.11.28.12.57.06.91-.71.52-1.42,1-2.13,1.46l.1-1.15c.61-.37,1.24-.76,1.88-1.19l.09-.03Z"/><path class="cls-19" d="m1133.11,596.02h19.43c-.14,1.01-.61,1.74-1.55,2.07h-16.32c-.94-.47-1.55-1.04-1.55-2.07Z"/><path class="cls-10" d="m1152.46,492.76l-.09.03c-.64.42-1.26.82-1.88,1.19v-.06c.48-.61.91-1.29,1.28-2.02.07.06.15.14.23.22.23.23.37.44.46.65Z"/><path class="cls-18" d="m1150.96,598.1c.69.6,1.54,1.83,1.48,2.59h-19.43c0-1.04,0-1.72,1.21-2.58h16.74Z"/><path class="cls-19" d="m1133.01,600.69h19.43c-.13,1.01-.61,1.74-1.55,2.07h-16.32c-.93-.47-1.55-1.04-1.55-2.07Z"/><path class="cls-19" d="m1153.64,612.75c-7.56,1.55-10.22-2.81-10.59-9.94l4.88.12c-3.85,5.81.52,8,5.7,9.82Z"/><path class="cls-10" d="m1150.7,491.6c.39-.14.67-.04,1.06.3-.37.73-.8,1.41-1.27,2.02l.21-2.32Z"/><path class="cls-10" d="m1150.7,491.6l-.21,2.32s-.05.08-.09.11c-6.62,3.92-12.08,4.57-17.84,5.34-2.73.22-5.25.22-7.58.04-3.45-.58-6.79-1.64-10.04-2.89-2.8-1.08-6.12-1.96-8.19-3.98,2.17,1,4.12,1.84,6.1,2.52,4.44,1.54,9.02,2.32,16.6,2.49,7.05.16,13.68-2.26,17.61-4.07,2.28-1.05,3.64-1.89,3.64-1.89Z"/><path class="cls-10" d="m1150.41,494.03s.06-.08.09-.11v.06s-.06.03-.09.05Z"/><path class="cls-3" d="m1150.49,493.98l-.1,1.15c-1.67,1.08-3.38,2-5.22,2.78v-.03c2.14-.89,3.89-2.14,5.24-3.85.03-.02.05-.03.08-.05Z"/><circle class="cls-10" cx="1147.33" cy="540.57" r="2.59"/><path class="cls-16" d="m1143.52,478.58c-5.23-2.48-11.48-2.27-17.89-1.85-.96-.95-1.68-1.93-3.46-2.06l14.83-1.35c9.53,2.34,12.67-9.15,12.67.39,0,2.84-.56,5.53-1.58,7.98-.23-.19-.47-.39-.72-.6-1.2-1.05-2.49-1.87-3.85-2.52Z"/><circle class="cls-10" cx="1146.56" cy="548.35" r="2.59"/><path class="cls-5" d="m1150.41,494.03c-1.35,1.71-3.1,2.95-5.25,3.85-3.71,1.53-8.6,2.02-14.66,2.02-1.87,0-3.71-.17-5.51-.48,2.34.18,4.85.18,7.58-.04,5.77-.77,11.22-1.42,17.84-5.34Z"/><path class="cls-11" d="m1148.08,481.7c3.48,2.8,5.24,2.51,5.24,2.88,0,.41-2.11,1.64-6.37,8.66l.12.24c-3.92,1.81-10.56,4.23-17.61,4.07-7.58-.18-12.17-.95-16.6-2.49l.03-.1c-4.53-3.56-6.08-2.87-6.48-3.36-.3-.38.06-1.44.28-5.58.27-5.02.05-6.21,1.3-6.72.05,4.66,1.5,8.01,4.04,10.35,3.56,3.26,9.28,4.53,16.39,4.53,9.24,0,16.58-5.12,19.66-12.49Z"/><path class="cls-16" d="m1143.52,478.58c1.36.65,2.64,1.47,3.85,2.52.25.22.48.41.72.6-3.09,7.36-10.43,12.49-19.66,12.49-7.12,0-12.83-1.26-16.39-4.53h.62s3.89-12.45,3.89-12.45c1.95-.02,3.91-.13,5.88-.26,1.05.34,2.16.54,3.45,0-.08-.07-.15-.15-.23-.22,6.41-.42,12.66-.63,17.89,1.85Z"/><path class="cls-3" d="m1145.15,497.87v.03c-4.41,1.87-9.57,2.86-16.74,3.02-10.42.24-15.19-1.56-21.3-5.16l-.28-2.04c5.06,2.75,10.69,5.12,18.14,5.68,1.81.3,3.64.48,5.51.48,6.07,0,10.96-.48,14.66-2.02Z"/><circle class="cls-10" cx="1142.93" cy="534.61" r="2.59"/><path class="cls-11" d="m1141.37,527.1c.04.92-.39,1.52-1.3,1.81l-17.36.26c-1.08.16-1.74-.21-1.81-1.3v-10.11c0-.8.51-1.26,1.3-1.55l16.58-.26c1.63-.1,2.32.53,2.59,1.3v9.85Zm-7.26-3.63v-1.55c0-.88-.31-1.68-.83-2.31-.07-.09-.15-.17-.23-.26-.66-.66-1.56-1.06-2.57-1.06-2,0-3.63,1.62-3.63,3.63v1.55c0,.91.33,1.74.88,2.37,0,0,0,0,0,0,.09.15.21.28.37.37,0,0,0,0,0,0,.63.55,1.46.88,2.37.88s1.79-.35,2.43-.93c.74-.66,1.2-1.62,1.2-2.69Z"/><path class="cls-18" d="m1138.58,602.81c.07,9.86.69,18.02,3.82,18.35-3.16-.23-5.32-1.79-7.29-3.63l-.74-14.77h4.21v.05Z"/><path class="cls-18" d="m1134.12,521.92v1.55c0,1.07-.46,2.03-1.2,2.69l-.1-.11c.16-.16.26-.39.26-.64,0-.5-.4-.91-.91-.91v-.78c.5,0,.91-.41.91-.91s-.4-.91-.91-.91v-.78c.5,0,.91-.41.91-.91,0-.22-.08-.42-.21-.58l.41-.05c.52.63.83,1.43.83,2.31Z"/><path class="cls-18" d="m1133.29,519.61l-.41.05c-.17-.2-.42-.33-.7-.33-.5,0-.91.4-.91.91s.41.91.91.91v.78c-.5,0-.91.4-.91.91s.41.91.91.91v.78c-.5,0-.91.4-.91.91s.41.91.91.91c.25,0,.48-.1.64-.27l.1.11c-.64.58-1.49.93-2.43.93s-1.74-.33-2.37-.88c.13.07.27.11.43.11.5,0,.91-.41.91-.91s-.4-.91-.91-.91-.91.4-.91.91c0,.16.04.3.11.43-.55-.63-.88-1.46-.88-2.37v-1.55c0-2,1.62-3.63,3.63-3.63,1,0,1.91.41,2.57,1.06.08.08.16.17.23.26Zm-3.84.62c0-.5-.4-.91-.91-.91s-.91.4-.91.91.41.91.91.91.91-.41.91-.91Zm0,2.59c0-.5-.4-.91-.91-.91s-.91.4-.91.91.41.91.91.91.91-.41.91-.91Z"/><path class="cls-10" d="m1132.87,519.65c.13.16.21.36.21.58,0,.5-.4.91-.91.91s-.91-.41-.91-.91.41-.91.91-.91c.28,0,.53.13.7.33Z"/><circle class="cls-10" cx="1132.17" cy="522.82" r=".91"/><path class="cls-10" d="m1132.17,524.51c.5,0,.91.4.91.91,0,.25-.1.48-.26.64-.16.17-.39.27-.64.27-.5,0-.91-.41-.91-.91s.41-.91.91-.91Z"/><path class="cls-10" d="m1126.08,559.49l3.36.77c-.06,2.43-.12,4.86-.22,7.26h-.04c-.97-.17-1.94-.35-2.93-.53.01-2.52-.05-5.02-.18-7.51Z"/><circle class="cls-10" cx="1128.55" cy="520.23" r=".91"/><circle class="cls-10" cx="1128.55" cy="522.82" r=".91"/><path class="cls-10" d="m1128.55,524.51c.5,0,.91.4.91.91s-.4.91-.91.91c-.16,0-.3-.04-.43-.11,0,0,0,0,0,0-.13-.11-.25-.24-.37-.37,0,0,0,0,0,0-.07-.13-.11-.27-.11-.43,0-.5.41-.91.91-.91Z"/><path class="cls-17" d="m1129.19,567.52h.04c-.04,1.04-.09,2.07-.14,3.09l-2.87-.63c.03-1,.04-2,.04-2.99.98.18,1.96.36,2.93.53Z"/><path class="cls-10" d="m1126.23,569.98l2.87.63c-.42,8.37-1.26,16.36-3.27,23.34l-1.96-.06c1.33-8.11,2.17-16.09,2.37-23.91Z"/><path class="cls-10" d="m1127.75,525.85c.11.13.24.25.37.37-.15-.09-.28-.21-.37-.37Z"/><path class="cls-18" d="m1123.86,593.89l1.96.06c.69.6.84,1.32.78,2.07h-19.43c0-1.03,0-1.72,1.2-2.57l15.49.44Z"/><path class="cls-19" d="m1107.17,596.02h19.43c-.13,1.01-.61,1.74-1.55,2.07h-16.32c-.94-.47-1.55-1.04-1.55-2.07Z"/><path class="cls-18" d="m1125.36,598.11c1.22.86,1.21,1.54,1.21,2.58h-19.43c-.06-.76.64-1.99,1.33-2.59h16.89Z"/><path class="cls-19" d="m1107.13,600.69h19.43c0,1.04-.62,1.6-1.55,2.07h-8.41s-.11,0-.11,0h-7.81c-.95-.33-1.42-1.06-1.55-2.07Z"/><path class="cls-17" d="m1126.27,566.99c0,.99-.02,1.99-.04,2.99l-20.58-4.48c-.1-1.1-.19-2.21-.27-3.3,6.07,1.81,13.62,3.46,20.89,4.8Z"/><path class="cls-11" d="m1105.64,565.5l20.58,4.48c-.2,7.82-1.03,15.8-2.37,23.91l-12.81-.37v-.09c-2.73-9.55-4.56-18.9-5.41-27.93Z"/><path class="cls-5" d="m1125.63,476.74c.08.07.15.15.23.22-1.28.54-2.39.34-3.45,0,1.08-.07,2.15-.15,3.22-.22Z"/><path class="cls-18" d="m1125.01,602.76l-.74,14.77s0,.08-.01.11c-1.93,1.79-4.08,3.29-7.17,3.52,3.13-.33,3.75-8.49,3.82-18.35v-.05h4.1Z"/><path class="cls-5" d="m1125.63,476.74c-1.07.07-2.14.15-3.22.22-1.9-.62-3.63-1.7-5.88.26-2.22.76-3.92,1.16-5.23,1.42.88-1.64,3.15-2.48,7.66-3.54,0,0,.01,0,.02,0,.3-.06.6-.13.91-.21l2.27-.21c1.78.13,2.51,1.11,3.46,2.06Z"/><path class="cls-10" d="m1114.94,496.52c3.24,1.25,6.58,2.31,10.04,2.89-7.45-.56-13.09-2.93-18.14-5.68l-.17-1.23s.05.03.08.04c2.08,2.02,5.39,2.9,8.19,3.98Z"/><path class="cls-19" d="m1124.26,617.64c-.32,3.33-2.75,5.39-5.95,6.37l-12.44.52c-2.47-.63-3.95-2-4.41-4.15-.26-1.23-.09-2.36.52-3.54l.05.03c-.11,2.17,1.73,3.37,4.17,4.29h10.88c3.09-.23,5.23-1.73,7.17-3.52Z"/><path class="cls-5" d="m1122.17,474.67l-2.27.21c.92-.19,1.66-.25,2.27-.21Z"/><path class="cls-12" d="m1120.92,602.76v.05c-.07,9.86-.69,18.02-3.82,18.35h-10.88c-2.44-.91-4.28-2.12-4.17-4.29l-.05-.03c.65-1.27,1.81-2.6,3.49-4.19l.54.05c7.56,1.55,10.22-2.81,10.59-9.94h4.31Z"/><path class="cls-16" d="m1116.53,477.21c2.25-1.96,3.98-.88,5.88-.26-1.97.13-3.94.24-5.88.26Z"/><path class="cls-5" d="m1118.98,475.09c.3-.07.6-.14.91-.21-.31.08-.62.15-.91.21Z"/><circle class="cls-2" cx="1115.85" cy="511.94" r="4.53"/><circle class="cls-10" cx="1117.27" cy="534.61" r="2.59"/><path class="cls-19" d="m1116.5,602.76h.11c-.37,7.13-3.03,11.48-10.59,9.94,5.19-1.83,9.55-4.01,5.7-9.82l4.78-.12Z"/><path class="cls-5" d="m1116.53,477.21l-3.89,12.44c-1.46-5.97-2.39-9.06-1.34-11.02,1.31-.26,3.01-.66,5.23-1.42Z"/><path class="cls-12" d="m1116.5,602.76l-4.78.12c3.85,5.81-.52,7.99-5.7,9.82l-.54-.05c.92-.88,2.01-1.83,3.25-2.89l-.03-7h7.81Z"/><path class="cls-16" d="m1107.98,479.03c0-9.11,2.38-2.21,10.99-3.93-4.51,1.06-6.79,1.89-7.66,3.54-1.66.33-2.68.41-3.32.67,0-.09,0-.19,0-.28Z"/><circle class="cls-10" cx="1113.65" cy="548.35" r="2.59"/><circle class="cls-10" cx="1112.87" cy="540.57" r="2.59"/><path class="cls-3" d="m1112.88,494.97l-.03.1c-1.98-.68-3.93-1.52-6.1-2.52-.03-.03-.06-.06-.09-.09v-.08s-.45-.63-.45-.63l.19-.13c.4.49,1.95-.2,6.48,3.36Z"/><path class="cls-16" d="m1112.64,489.65h-.62c-2.54-2.33-3.99-5.69-4.04-10.34.64-.26,1.66-.34,3.32-.67-1.04,1.95-.12,5.05,1.34,11.02Z"/><path class="cls-10" d="m1111.06,593.43v.09s-2.67-.08-2.67-.08c0,0,0,0-.01.01l-.68-.02c-2.69-8.99-4.12-18.56-4.73-28.5h.07s2.62.56,2.62.56c.85,9.04,2.68,18.38,5.41,27.93Z"/><path class="cls-11" d="m1107.22,496.51l3.32,24.1-.29,1.3c-4.14,1.47-7.65,3.61-10.33,6.61v-25.35c2.01-2.27,4.4-4.45,7.26-6.65h.05Z"/><path class="cls-10" d="m1106.74,526.32c-.08.05-1.41.9-4.92,4.66-.74.54-1.37,1.12-1.9,1.74v-4.2c2.68-3,6.19-5.14,10.33-6.61l-.28,1.26c-2.06,6.02-3.45,12.34-4.2,18.91l-2.07,9.3c-.27-.05-.55-.11-.82-.16.26-7.54.96-14.46,2.48-20.23l.6-2.26c.25-.81.51-1.61.79-2.4Z"/><path class="cls-10" d="m1109.97,523.17l-4.2,18.91c.75-6.56,2.14-12.88,4.2-18.91Z"/><path class="cls-3" d="m1107.12,495.77l.1.74h-.05c-2.85,2.21-5.24,4.39-7.26,6.66v-2.23c2.18-2.68,4.24-4.67,5.78-6l.02-.03c.48.3.95.58,1.41.85Z"/><path class="cls-3" d="m1106.84,493.73l.28,2.04c-.46-.27-.93-.55-1.41-.85-.12-.07-.23-.14-.35-.21-.26-.75-.24-1.33.09-1.75h.02c.46.27.92.52,1.38.78Z"/><path class="cls-10" d="m1106.67,492.5l.17,1.23c-.46-.25-.93-.51-1.38-.77h-.02c.2-.27.51-.46.95-.59.09.04.18.09.28.13Z"/><path class="cls-19" d="m1106.66,492.45v.05c-.09-.04-.18-.08-.27-.13-.44.13-.75.32-.95.58-.33.42-.35,1.01-.09,1.75.12.07.23.14.35.21l-.02.03c-1.53,1.33-3.59,3.32-5.78,6v-6.24c1.03-3.28,1.55-4.89,4.64-4.92.43.6.96,1.27,1.58,2.07.16.21.34.41.53.59Z"/><path class="cls-5" d="m1106.65,492.38v.08c-.18-.19-.35-.39-.52-.59-.63-.8-1.15-1.47-1.58-2.07.09,0,.19,0,.29,0l1.37,1.96.44.63Z"/><path class="cls-19" d="m1102.88,551.22c-.02.6-.04,1.2-.05,1.8-1.05-.94-2.82-4.38-2.91-6.75v-13.55c.54-.62,1.17-1.2,1.9-1.74,3.51-3.77,4.84-4.61,4.92-4.66-.27.8-.54,1.6-.79,2.4l-.6,2.26c-1.52,5.77-2.22,12.69-2.48,20.23Z"/><path class="cls-10" d="m1103.7,551.38l2.07-9.3c-.36,3.14-.58,6.33-.65,9.57-.47-.09-.95-.18-1.42-.27Z"/><path class="cls-17" d="m1105.64,565.5l-2.62-.57h-.07c-.08-1.17-.14-2.36-.19-3.55.83.27,1.71.55,2.61.82.07,1.1.16,2.2.27,3.3Z"/><path class="cls-18" d="m1105.12,551.65c-.02.86-.03,1.72-.03,2.58-.76-.14-1.53-.29-2.29-.44,0-.26.01-.52.02-.77.18.16.33.25.46.25l.42-1.89c.47.09.95.18,1.42.27Z"/><path class="cls-10" d="m1105.1,554.23c0,2.62.1,5.28.28,7.97-.9-.27-1.78-.54-2.61-.82,0-.03,0-.05,0-.08-.02-2.55,0-5.06.04-7.51.76.15,1.53.3,2.29.44Z"/><path class="cls-10" d="m1103.7,551.38l-.42,1.89c-.12,0-.28-.09-.46-.25.02-.61.03-1.2.05-1.8.27.05.55.11.82.16Z"/><path class="cls-1" d="m1102.28,479.81c.1,4.32.05,6.02.99,7.93-1.95.77-3.59,1.24-4.36-.41l-2.07-11.4c.55-2.18,3.25-.94,5.66-.56-.18,1.31-.26,2.78-.22,4.45Z"/><path class="cls-10" d="m1099.91,528.52v4.2c-4.35,4.99-2.47,12.08-2.24,14.85.12,1.49.07,2.74-.16,3.67l-.19-.04c-2.28-4.18-3.01-9.37-2.18-13.8,1.01-3.56,2.63-6.49,4.77-8.87Z"/><path class="cls-11" d="m1099.91,503.17v25.35c-2.14,2.38-3.76,5.31-4.77,8.87-.83,4.43-.11,9.62,2.18,13.8l.19.04c-.25,1.01-.72,1.64-1.39,1.77-1.3.26-3.63-7-4.92-7s-.52,3.11-.52,3.11c2.94,4.2,4.21,5.46,2.85,6.74-.5.43-1.05.68-1.65.77-9.84-4.15-6.57-13.57-3.3-17.6l1.3-8.55c1.1-11.98,3.63-20.07,10.04-27.31Z"/><path class="cls-3" d="m1099.91,500.95v2.23c-6.42,7.24-8.94,15.33-10.04,27.31l-1.3,8.55c-3.27,4.03-6.54,13.45,3.3,17.6-1.33.22-2.88-.32-4.57-1.29-6.13-3.97-4.51-9.4-1.81-15.03,1.04-2.28,1.98-4.55,2.07-6.74.85-15.31,6.98-26.04,12.35-32.63Z"/></g><path class="cls-25" d="m1120.9,517.77v10.11c.08,1.09.73,1.46,1.81,1.3l17.36-.26c.9-.29,1.34-.9,1.3-1.81v-9.85c-.27-.77-.96-1.4-2.59-1.3l-16.58.26c-.79.29-1.3.76-1.3,1.55Z"/></g><use transform="translate(1110.67 506.24) scale(.02)" xlink:href="#image"/></g><path class="cls-26" d="m1127.22,455.45v-3.72s7.46-4.95,3.73-7.43c-3.73-2.48-7.46,1.24-7.46,1.24"/><g><path class="cls-8" d="m1160.86,488.01h-.01l-1.53-1.19-5.44-4.24c0-1.36-.09-5.04-.09-5.04,3.63,2.96,6.52,5.25,6.83,5.51.89.76.89,1.52,0,1.52s1.77,2.27,1.77,1.51.89-.76,3.54,2.27c2.65,3.02-2.21,1.89-2.21,1.89l-2.86-2.23Z"/><polygon class="cls-4" points="1159.32 486.82 1160.85 488.01 1089.58 499.53 1092.47 496.42 1092.7 496.63 1159.22 486.95 1159.32 486.82"/><path class="cls-8" d="m1102.22,485.95l-8.95,9.61-1.52-1.41c.55-.58.93-1.2.47-1.2-1,0-1-1,0-2,.41-.41,4.92-5.11,10-10,0,0-1,4,0,5Z"/><path class="cls-8" d="m1089.58,499.53l-.86.92s-5.5,1.5-2.5-2.5,4-4,4-3c0,.54.89-.1,1.53-.8l1.52,1.41-.8.86-2.89,3.11Z"/></g></g><g id="ASTRONAUTE_3" class="cls-21"><line class="cls-13" x1="1172.36" y1="484.39" x2="1171.86" y2="474.89"/><g><path class="cls-8" d="m1205.57,507.35c2.65,3.03-2.21,1.89-2.21,1.89l-2.87-2.23.37-.06,1.03-1.71c.09,0,.14-.04.14-.15,0-.76.89-.76,3.54,2.26Z"/><path class="cls-8" d="m1201.89,505.24l-1.03,1.71-.37.06-1.53-1.19-27.35-21.28c-.5-.39-1.05-.71-1.63-.94-.81-.32-1.65-.48-2.49-.48-.46,0-.91.05-1.36.14-1.27.26-2.45.88-3.41,1.83l-29.86,29.86-1.63-1.63c.63-.62,1.13-1.37.63-1.37-1,0-1-1,0-2,.34-.34,3.44-3.21,7.39-6.97,7.7-7.33,18.61-18.05,18.61-20.03,0-.8.14-1.81.48-2.86.94-2.91,3.39-6.14,8.52-6.14h1c6.19,0,9.41,5.43,9.41,7.69s22.11,19.66,22.99,20.42c.89.76.89,1.51,0,1.51-.76,0,1.09,1.67,1.63,1.67Z"/><polygon class="cls-4" points="1198.96 505.82 1200.49 507.01 1129.28 518.53 1132.26 515.56 1132.34 515.64 1198.86 505.95 1198.96 505.82"/><path class="cls-8" d="m1129.28,518.53l-.92.92s-5.5,1.5-2.5-2.5,4-4,4-3c0,.5.75,0,1.37-.63l1.63,1.63-.6.61-2.98,2.97Z"/></g><g><g><g><path class="cls-3" d="m1215.32,560.09c2.69,5.63,4.31,11.06-1.81,15.03,4.38-6.21,1.97-10.48-1.3-14.51l-1.3-8.55c-.99-10.88-4.54-20.16-10.58-27.89.71-.63,1.32-1.13,1.51-1.13.52,0-2.85-3.63-2.85-3.63,0,0-.09.05-.26.13v-1.3c5.75,6.2,13.54,17.69,14.51,35.11.1,2.19,1.03,4.46,2.07,6.74Z"/><path class="cls-11" d="m1212.21,560.61c3.27,4.03,5.67,8.3,1.3,14.51-2.44,1.41-4.61,1.91-6.22.52-1.36-1.28-.09-2.54,2.85-6.74,0,0,.78-3.11-.52-3.11s-3.63,7.26-4.92,7c-.84-.17-1.36-1.11-1.54-2.6,2.28-4.17,2.37-8.52,1.54-12.94-1.19-4.2-3.23-7.51-5.96-10.1v-21.49c.5-.48,1.08-1.02,1.6-1.49,6.04,7.73,9.58,17.02,10.58,27.89l1.3,8.55Z"/><path class="cls-10" d="m1204.69,557.24c.83,4.42.73,8.77-1.54,12.94-.1-.8-.1-1.75-.01-2.84.26-3.11,2.59-11.66-4.15-16.58-.09-.09-.17-.18-.26-.27v-3.34c2.73,2.58,4.77,5.9,5.96,10.1Z"/><path class="cls-17" d="m1198.99,519.41s3.37,3.63,2.85,3.63c-.18,0-.8.49-1.51,1.13-.52-.66-1.05-1.31-1.6-1.95v-2.67c.17-.09.26-.13.26-.13Z"/><path class="cls-1" d="m1199.02,496.73l1.3,9.33c-.76,1.63-3.03,2.65-5.33,2.72-.66-.27-1.39-.43-2.21-.47.42-1.39.72-2.94.88-4.7.11-1.17.17-2.43.17-3.78,0-1.48-.09-2.82-.27-4.04,2.31-.4,4.95-1.04,5.45.94Z"/><path class="cls-14" d="m1200.34,524.16c-.52.47-1.1,1.01-1.6,1.49v-3.44c.55.64,1.09,1.29,1.6,1.95Z"/><path class="cls-19" d="m1198.73,550.49v14.53c-.06,1.63-.2,2.95-.48,3.77-.23-7.94-1.69-15.48-4.18-22.68.08.05,1.34.86,4.66,4.39Z"/><path class="cls-10" d="m1194.07,546.1c2.48,7.2,3.95,14.74,4.18,22.68-.2.57-.46.89-.81.89l-4.07-13.24c-.92-5.05-2.23-9.97-3.96-14.75,3.64,1.27,6.78,3.04,9.33,5.45v3.34c-3.32-3.53-4.58-4.34-4.66-4.39Z"/><path class="cls-11" d="m1198.73,525.66v21.49c-2.54-2.41-5.69-4.18-9.33-5.45,1.73,4.78,3.04,9.69,3.96,14.75l-5.26-17.08,2.23-24.69.41.04c2.31,1.78,4.42,3.68,6.34,5.7-1.27.68-2.83,1.55-3.53,2.12l3.89,4.41s.57-.57,1.3-1.27Z"/><path class="cls-14" d="m1198.73,522.21v3.44c-.73.7-1.3,1.27-1.3,1.27l-3.89-4.41c.71-.57,2.27-1.44,3.53-2.12.57.59,1.11,1.2,1.65,1.81Z"/><path class="cls-17" d="m1198.73,519.54v2.67c-.53-.62-1.08-1.22-1.65-1.81.7-.38,1.32-.69,1.65-.86Z"/><path class="cls-3" d="m1198.73,518.24v1.3c-.33.17-.94.48-1.65.86-1.92-2.02-4.03-3.92-6.34-5.7l-.41-.04.05-.53c.72-.46,1.42-.95,2.13-1.46,0,0,2.73,1.81,6.22,5.57Z"/><path class="cls-19" d="m1198.73,513.45v4.79c-3.49-3.76-6.22-5.57-6.22-5.57.06-.34.05-.63-.06-.91-.09-.21-.23-.42-.46-.65-.08-.08-.16-.16-.23-.22.37-.73.69-1.52.96-2.37.72.2,1.5.28,2.27.25,1.79.74,3.01,2.33,3.74,4.67Z"/><path class="cls-10" d="m1198.25,568.78c.03.96.04,1.92.03,2.89-1.12.19-2.23.37-3.35.52-.12-5.39-.63-10.64-1.57-15.76l4.07,13.24c.35,0,.61-.32.81-.89Z"/><path class="cls-18" d="m1198.28,571.68c-.01.85-.03,1.7-.07,2.55-1.08.18-2.17.35-3.25.51,0-.85,0-1.69-.03-2.54,1.12-.16,2.23-.33,3.35-.52Z"/><path class="cls-19" d="m1197.46,635.95c.56,1.14.71,2.24.46,3.43-.45,2.15-1.94,3.52-4.41,4.15l-12.44-.52c-3.23-.98-5.68-3.08-5.96-6.48,1.96,1.83,4.13,3.39,7.29,3.63h10.88c2.41-.9,4.23-2.09,4.17-4.21Z"/><path class="cls-10" d="m1198.21,574.23c-.09,2.08-.26,4.19-.53,6.33-.96.32-1.94.62-2.94.92.14-2.27.21-4.51.21-6.74,1.09-.16,2.17-.33,3.25-.51Z"/><path class="cls-17" d="m1197.68,580.56c-.08.6-.16,1.21-.24,1.82l-.36,2.01-2.6.6c.11-1.18.19-2.34.26-3.51,1-.3,1.98-.6,2.94-.92Z"/><path class="cls-12" d="m1197.46,635.95c.06,2.12-1.76,3.31-4.17,4.21h-10.88c-3.13-.33-3.75-8.49-3.82-18.35v-.05h4.47v.05c.37,7.13,3.03,11.49,10.59,9.94l.18-.19c1.78,1.67,2.99,3.06,3.64,4.39Z"/><path class="cls-10" d="m1197.08,584.39l-5.08,28.31-2.78-.04v-.3c2.71-9.45,4.47-18.58,5.26-27.37l2.6-.6Z"/><path class="cls-18" d="m1194.93,572.2c.02.84.03,1.69.03,2.54-16.53,2.39-33.16,1.58-49.86-1.51,0-.87,0-1.73.03-2.58,16.68,3.09,33.29,3.91,49.81,1.55Z"/><path class="cls-19" d="m1194.99,508.78c-.77.03-1.54-.05-2.27-.25.02-.07.04-.14.06-.21.81.04,1.55.19,2.21.47Z"/><path class="cls-11" d="m1194.96,574.74c0,2.22-.08,4.47-.21,6.74-6.53,1.94-14.03,3.52-22,4.92h-.06s-.38-6.87-.38-6.87l-2.85-.52c0,.09,0,.17,0,.26l-3.36-.77c.13,2.48.19,4.99.18,7.51-7.27-1.34-14.82-2.99-20.89-4.8-.18-2.69-.28-5.34-.28-7.97,16.7,3.09,33.33,3.89,49.86,1.51Z"/><path class="cls-17" d="m1194.74,581.48c-.07,1.16-.16,2.33-.26,3.51l-21.6,4.95-.19-3.54h.06c7.97-1.4,15.47-2.98,22-4.92Z"/><path class="cls-11" d="m1172.88,589.93l21.6-4.95c-.79,8.79-2.55,17.92-5.25,27.37v.3s-15.11-.22-15.11-.22l-1.24-22.5Z"/><path class="cls-12" d="m1193.82,631.56l-.18.19c-5.19-1.82-9.55-4.01-5.7-9.82l-4.88-.12v-.05h7.65l-.03,7c1.2,1.03,2.25,1.95,3.15,2.8Z"/><path class="cls-3" d="m1143.27,506.73c-.94-1.91-.9-3.61-.99-7.93-.04-1.67.04-3.14.22-4.45,1.54-10.99,10.74-9.93,25.43-10.32,14.08-.37,23.93-.13,25.65,11.76.18,1.22.27,2.57.27,4.04,0,1.35-.06,2.61-.17,3.78l-.35-.04c0-.38-1.75-.08-5.24-2.88,1.03-2.45,1.58-5.14,1.58-7.98,0-9.55-3.14,1.95-12.67-.39l-14.83,1.35c-.61-.04-1.35.01-2.27.21-.31.07-.62.14-.91.21,0,0-.01,0-.02,0-8.6,1.72-10.99-5.18-10.99,3.93,0,.09,0,.19,0,.28-1.25.51-1.03,1.7-1.3,6.72-.22,4.14-.59,5.2-.28,5.58l-.19.13-1.37-1.96c-.1,0-.19,0-.29,0-.56-.77-.97-1.42-1.28-2.05Z"/><path class="cls-3" d="m1193.32,503.58l.35.04c-.17,1.75-.46,3.31-.88,4.7-.18-.01-.36-.01-.55,0l-1.54,2.29s-1.36.84-3.64,1.89l-.12-.24c4.26-7.03,6.37-8.25,6.37-8.66Z"/><path class="cls-11" d="m1193.36,556.44c.93,5.12,1.45,10.37,1.57,15.76-16.51,2.36-33.12,1.54-49.81-1.55.07-3.24.28-6.43.65-9.57l4.2-18.91c.15-.44.31-.88.46-1.32-.06.02-.12.04-.19.07l.29-1.3-3.32-24.1-.1-.74c6.11,3.6,10.88,5.39,21.3,5.16,7.16-.16,12.32-1.15,16.75-3.02,1.83-.77,3.54-1.7,5.22-2.78l-.05.53-2.23,24.69,5.26,17.08Zm-3.44,3.13c0-1.43-1.16-2.59-2.59-2.59s-2.59,1.16-2.59,2.59,1.16,2.59,2.59,2.59,2.59-1.16,2.59-2.59Zm-.78,7.77c0-1.43-1.16-2.59-2.59-2.59s-2.59,1.16-2.59,2.59,1.16,2.59,2.59,2.59,2.59-1.16,2.59-2.59Zm-3.63-13.73c0-1.43-1.16-2.59-2.59-2.59s-2.59,1.16-2.59,2.59,1.16,2.59,2.59,2.59,2.59-1.16,2.59-2.59Zm-5.44-5.7c.9-.29,1.34-.9,1.3-1.81v-9.85c-.27-.77-.96-1.4-2.59-1.3l-16.58.26c-.79.29-1.3.76-1.3,1.55v10.11c.08,1.09.73,1.46,1.81,1.3l17.36-.26Zm-19.69-16.97c0-2.51-2.03-4.53-4.53-4.53s-4.53,2.03-4.53,4.53,2.03,4.53,4.53,4.53,4.53-2.03,4.53-4.53Zm-.52,22.67c0-1.43-1.16-2.59-2.59-2.59s-2.59,1.16-2.59,2.59,1.16,2.59,2.59,2.59,2.59-1.16,2.59-2.59Zm-3.63,13.73c0-1.43-1.16-2.59-2.59-2.59s-2.59,1.16-2.59,2.59,1.16,2.59,2.59,2.59,2.59-1.16,2.59-2.59Zm-.78-7.77c0-1.43-1.16-2.59-2.59-2.59s-2.59,1.16-2.59,2.59,1.16,2.59,2.59,2.59,2.59-1.16,2.59-2.59Z"/><path class="cls-19" d="m1192.72,508.53c-.27.86-.59,1.65-.96,2.37-.39-.34-.67-.44-1.06-.3l1.54-2.29c.19,0,.37,0,.55,0-.02.07-.04.14-.06.21Z"/><path class="cls-18" d="m1191.77,612.95c.69.6.83,1.32.78,2.07h-19.43c0-1.04,0-1.72,1.21-2.58l17.44.51Z"/><path class="cls-3" d="m1192.46,511.76c.11.28.12.57.06.91-.71.52-1.42,1-2.13,1.46l.1-1.15c.61-.37,1.24-.76,1.88-1.19l.09-.03Z"/><path class="cls-19" d="m1173.11,615.02h19.43c-.14,1.01-.61,1.74-1.55,2.07h-16.32c-.94-.47-1.55-1.04-1.55-2.07Z"/><path class="cls-10" d="m1192.46,511.76l-.09.03c-.64.42-1.26.82-1.88,1.19v-.06c.48-.61.91-1.29,1.28-2.02.07.06.15.14.23.22.23.23.37.44.46.65Z"/><path class="cls-18" d="m1190.96,617.1c.69.6,1.54,1.83,1.48,2.59h-19.43c0-1.04,0-1.72,1.21-2.58h16.74Z"/><path class="cls-19" d="m1173.01,619.69h19.43c-.13,1.01-.61,1.74-1.55,2.07h-16.32c-.93-.47-1.55-1.04-1.55-2.07Z"/><path class="cls-19" d="m1193.64,631.75c-7.56,1.55-10.22-2.81-10.59-9.94l4.88.12c-3.85,5.81.52,8,5.7,9.82Z"/><path class="cls-10" d="m1190.7,510.6c.39-.14.67-.04,1.06.3-.37.73-.8,1.41-1.27,2.02l.21-2.32Z"/><path class="cls-10" d="m1190.7,510.6l-.21,2.32s-.05.08-.09.11c-6.62,3.92-12.08,4.57-17.84,5.34-2.73.22-5.25.22-7.58.04-3.45-.58-6.79-1.64-10.04-2.89-2.8-1.08-6.12-1.96-8.19-3.98,2.17,1,4.12,1.84,6.1,2.52,4.44,1.54,9.02,2.32,16.6,2.49,7.05.16,13.68-2.26,17.61-4.07,2.28-1.05,3.64-1.89,3.64-1.89Z"/><path class="cls-10" d="m1190.41,513.03s.06-.08.09-.11v.06s-.06.03-.09.05Z"/><path class="cls-3" d="m1190.49,512.98l-.1,1.15c-1.67,1.08-3.38,2-5.22,2.78v-.03c2.14-.89,3.89-2.14,5.24-3.85.03-.02.05-.03.08-.05Z"/><circle class="cls-10" cx="1187.33" cy="559.57" r="2.59"/><path class="cls-16" d="m1183.52,497.58c-5.23-2.48-11.48-2.27-17.89-1.85-.96-.95-1.68-1.93-3.46-2.06l14.83-1.35c9.53,2.34,12.67-9.15,12.67.39,0,2.84-.56,5.53-1.58,7.98-.23-.19-.47-.39-.72-.6-1.2-1.05-2.49-1.87-3.85-2.52Z"/><circle class="cls-10" cx="1186.56" cy="567.35" r="2.59"/><path class="cls-5" d="m1190.41,513.03c-1.35,1.71-3.1,2.95-5.25,3.85-3.71,1.53-8.6,2.02-14.66,2.02-1.87,0-3.71-.17-5.51-.48,2.34.18,4.85.18,7.58-.04,5.77-.77,11.22-1.42,17.84-5.34Z"/><path class="cls-11" d="m1188.08,500.7c3.48,2.8,5.24,2.51,5.24,2.88,0,.41-2.11,1.64-6.37,8.66l.12.24c-3.92,1.81-10.56,4.23-17.61,4.07-7.58-.18-12.17-.95-16.6-2.49l.03-.1c-4.53-3.56-6.08-2.87-6.48-3.36-.3-.38.06-1.44.28-5.58.27-5.02.05-6.21,1.3-6.72.05,4.66,1.5,8.01,4.04,10.35,3.56,3.26,9.28,4.53,16.39,4.53,9.24,0,16.58-5.12,19.66-12.49Z"/><path class="cls-16" d="m1183.52,497.58c1.36.65,2.64,1.47,3.85,2.52.25.22.48.41.72.6-3.09,7.36-10.43,12.49-19.66,12.49-7.12,0-12.83-1.26-16.39-4.53h.62s3.89-12.45,3.89-12.45c1.95-.02,3.91-.13,5.88-.26,1.05.34,2.16.54,3.45,0-.08-.07-.15-.15-.23-.22,6.41-.42,12.66-.63,17.89,1.85Z"/><path class="cls-3" d="m1185.15,516.87v.03c-4.41,1.87-9.57,2.86-16.74,3.02-10.42.24-15.19-1.56-21.3-5.16l-.28-2.04c5.06,2.75,10.69,5.12,18.14,5.68,1.81.3,3.64.48,5.51.48,6.07,0,10.96-.48,14.66-2.02Z"/><circle class="cls-10" cx="1182.93" cy="553.61" r="2.59"/><path class="cls-11" d="m1181.37,546.1c.04.92-.39,1.52-1.3,1.81l-17.36.26c-1.08.16-1.74-.21-1.81-1.3v-10.11c0-.8.51-1.26,1.3-1.55l16.58-.26c1.63-.1,2.32.53,2.59,1.3v9.85Zm-7.26-3.63v-1.55c0-.88-.31-1.68-.83-2.31-.07-.09-.15-.17-.23-.26-.66-.66-1.56-1.06-2.57-1.06-2,0-3.63,1.62-3.63,3.63v1.55c0,.91.33,1.74.88,2.37,0,0,0,0,0,0,.09.15.21.28.37.37,0,0,0,0,0,0,.63.55,1.46.88,2.37.88s1.79-.35,2.43-.93c.74-.66,1.2-1.62,1.2-2.69Z"/><path class="cls-18" d="m1178.58,621.81c.07,9.86.69,18.02,3.82,18.35-3.16-.23-5.32-1.79-7.29-3.63l-.74-14.77h4.21v.05Z"/><path class="cls-18" d="m1174.12,540.92v1.55c0,1.07-.46,2.03-1.2,2.69l-.1-.11c.16-.16.26-.39.26-.64,0-.5-.4-.91-.91-.91v-.78c.5,0,.91-.41.91-.91s-.4-.91-.91-.91v-.78c.5,0,.91-.41.91-.91,0-.22-.08-.42-.21-.58l.41-.05c.52.63.83,1.43.83,2.31Z"/><path class="cls-18" d="m1173.29,538.61l-.41.05c-.17-.2-.42-.33-.7-.33-.5,0-.91.4-.91.91s.41.91.91.91v.78c-.5,0-.91.4-.91.91s.41.91.91.91v.78c-.5,0-.91.4-.91.91s.41.91.91.91c.25,0,.48-.1.64-.27l.1.11c-.64.58-1.49.93-2.43.93s-1.74-.33-2.37-.88c.13.07.27.11.43.11.5,0,.91-.41.91-.91s-.4-.91-.91-.91-.91.4-.91.91c0,.16.04.3.11.43-.55-.63-.88-1.46-.88-2.37v-1.55c0-2,1.62-3.63,3.63-3.63,1,0,1.91.41,2.57,1.06.08.08.16.17.23.26Zm-3.84.62c0-.5-.4-.91-.91-.91s-.91.4-.91.91.41.91.91.91.91-.41.91-.91Zm0,2.59c0-.5-.4-.91-.91-.91s-.91.4-.91.91.41.91.91.91.91-.41.91-.91Z"/><path class="cls-10" d="m1172.87,538.65c.13.16.21.36.21.58,0,.5-.4.91-.91.91s-.91-.41-.91-.91.41-.91.91-.91c.28,0,.53.13.7.33Z"/><circle class="cls-10" cx="1172.17" cy="541.82" r=".91"/><path class="cls-10" d="m1172.17,543.51c.5,0,.91.4.91.91,0,.25-.1.48-.26.64-.16.17-.39.27-.64.27-.5,0-.91-.41-.91-.91s.41-.91.91-.91Z"/><path class="cls-10" d="m1166.08,578.49l3.36.77c-.06,2.43-.12,4.86-.22,7.26h-.04c-.97-.17-1.94-.35-2.93-.53.01-2.52-.05-5.02-.18-7.51Z"/><circle class="cls-10" cx="1168.55" cy="539.23" r=".91"/><circle class="cls-10" cx="1168.55" cy="541.82" r=".91"/><path class="cls-10" d="m1168.55,543.51c.5,0,.91.4.91.91s-.4.91-.91.91c-.16,0-.3-.04-.43-.11,0,0,0,0,0,0-.13-.11-.25-.24-.37-.37,0,0,0,0,0,0-.07-.13-.11-.27-.11-.43,0-.5.41-.91.91-.91Z"/><path class="cls-17" d="m1169.19,586.52h.04c-.04,1.04-.09,2.07-.14,3.09l-2.87-.63c.03-1,.04-2,.04-2.99.98.18,1.96.36,2.93.53Z"/><path class="cls-10" d="m1166.23,588.98l2.87.63c-.42,8.37-1.26,16.36-3.27,23.34l-1.96-.06c1.33-8.11,2.17-16.09,2.37-23.91Z"/><path class="cls-10" d="m1167.75,544.85c.11.13.24.25.37.37-.15-.09-.28-.21-.37-.37Z"/><path class="cls-18" d="m1163.86,612.89l1.96.06c.69.6.84,1.32.78,2.07h-19.43c0-1.03,0-1.72,1.2-2.57l15.49.44Z"/><path class="cls-19" d="m1147.17,615.02h19.43c-.13,1.01-.61,1.74-1.55,2.07h-16.32c-.94-.47-1.55-1.04-1.55-2.07Z"/><path class="cls-18" d="m1165.36,617.11c1.22.86,1.21,1.54,1.21,2.58h-19.43c-.06-.76.64-1.99,1.33-2.59h16.89Z"/><path class="cls-19" d="m1147.13,619.69h19.43c0,1.04-.62,1.6-1.55,2.07h-8.41s-.11,0-.11,0h-7.81c-.95-.33-1.42-1.06-1.55-2.07Z"/><path class="cls-17" d="m1166.27,585.99c0,.99-.02,1.99-.04,2.99l-20.58-4.48c-.1-1.1-.19-2.21-.27-3.3,6.07,1.81,13.62,3.46,20.89,4.8Z"/><path class="cls-11" d="m1145.64,584.5l20.58,4.48c-.2,7.82-1.03,15.8-2.37,23.91l-12.81-.37v-.09c-2.73-9.55-4.56-18.9-5.41-27.93Z"/><path class="cls-5" d="m1165.63,495.74c.08.07.15.15.23.22-1.28.54-2.39.34-3.45,0,1.08-.07,2.15-.15,3.22-.22Z"/><path class="cls-18" d="m1165.01,621.76l-.74,14.77s0,.08-.01.11c-1.93,1.79-4.08,3.29-7.17,3.52,3.13-.33,3.75-8.49,3.82-18.35v-.05h4.1Z"/><path class="cls-5" d="m1165.63,495.74c-1.07.07-2.14.15-3.22.22-1.9-.62-3.63-1.7-5.88.26-2.22.76-3.92,1.16-5.23,1.42.88-1.64,3.15-2.48,7.66-3.54,0,0,.01,0,.02,0,.3-.06.6-.13.91-.21l2.27-.21c1.78.13,2.51,1.11,3.46,2.06Z"/><path class="cls-10" d="m1154.94,515.52c3.24,1.25,6.58,2.31,10.04,2.89-7.45-.56-13.09-2.93-18.14-5.68l-.17-1.23s.05.03.08.04c2.08,2.02,5.39,2.9,8.19,3.98Z"/><path class="cls-19" d="m1164.26,636.64c-.32,3.33-2.75,5.39-5.95,6.37l-12.44.52c-2.47-.63-3.95-2-4.41-4.15-.26-1.23-.09-2.36.52-3.54l.05.03c-.11,2.17,1.73,3.37,4.17,4.29h10.88c3.09-.23,5.23-1.73,7.17-3.52Z"/><path class="cls-5" d="m1162.17,493.67l-2.27.21c.92-.19,1.66-.25,2.27-.21Z"/><path class="cls-12" d="m1160.92,621.76v.05c-.07,9.86-.69,18.02-3.82,18.35h-10.88c-2.44-.91-4.28-2.12-4.17-4.29l-.05-.03c.65-1.27,1.81-2.6,3.49-4.19l.54.05c7.56,1.55,10.22-2.81,10.59-9.94h4.31Z"/><path class="cls-16" d="m1156.53,496.21c2.25-1.96,3.98-.88,5.88-.26-1.97.13-3.94.24-5.88.26Z"/><path class="cls-5" d="m1158.98,494.09c.3-.07.6-.14.91-.21-.31.08-.62.15-.91.21Z"/><circle class="cls-2" cx="1155.85" cy="530.94" r="4.53"/><circle class="cls-10" cx="1157.27" cy="553.61" r="2.59"/><path class="cls-19" d="m1156.5,621.76h.11c-.37,7.13-3.03,11.48-10.59,9.94,5.19-1.83,9.55-4.01,5.7-9.82l4.78-.12Z"/><path class="cls-5" d="m1156.53,496.21l-3.89,12.44c-1.46-5.97-2.39-9.06-1.34-11.02,1.31-.26,3.01-.66,5.23-1.42Z"/><path class="cls-12" d="m1156.5,621.76l-4.78.12c3.85,5.81-.52,7.99-5.7,9.82l-.54-.05c.92-.88,2.01-1.83,3.25-2.89l-.03-7h7.81Z"/><path class="cls-16" d="m1147.98,498.03c0-9.11,2.38-2.21,10.99-3.93-4.51,1.06-6.79,1.89-7.66,3.54-1.66.33-2.68.41-3.32.67,0-.09,0-.19,0-.28Z"/><circle class="cls-10" cx="1153.65" cy="567.35" r="2.59"/><circle class="cls-10" cx="1152.87" cy="559.57" r="2.59"/><path class="cls-3" d="m1152.88,513.97l-.03.1c-1.98-.68-3.93-1.52-6.1-2.52-.03-.03-.06-.06-.09-.09v-.08s-.45-.63-.45-.63l.19-.13c.4.49,1.95-.2,6.48,3.36Z"/><path class="cls-16" d="m1152.64,508.65h-.62c-2.54-2.33-3.99-5.69-4.04-10.34.64-.26,1.66-.34,3.32-.67-1.04,1.95-.12,5.05,1.34,11.02Z"/><path class="cls-10" d="m1151.06,612.43v.09s-2.67-.08-2.67-.08c0,0,0,0-.01.01l-.68-.02c-2.69-8.99-4.12-18.56-4.73-28.5h.07s2.62.56,2.62.56c.85,9.04,2.68,18.38,5.41,27.93Z"/><path class="cls-11" d="m1147.22,515.51l3.32,24.1-.29,1.3c-4.14,1.47-7.65,3.61-10.33,6.61v-25.35c2.01-2.27,4.4-4.45,7.26-6.65h.05Z"/><path class="cls-10" d="m1146.74,545.32c-.08.05-1.41.9-4.92,4.66-.74.54-1.37,1.12-1.9,1.74v-4.2c2.68-3,6.19-5.14,10.33-6.61l-.28,1.26c-2.06,6.02-3.45,12.34-4.2,18.91l-2.07,9.3c-.27-.05-.55-.11-.82-.16.26-7.54.96-14.46,2.48-20.23l.6-2.26c.25-.81.51-1.61.79-2.4Z"/><path class="cls-10" d="m1149.97,542.17l-4.2,18.91c.75-6.56,2.14-12.88,4.2-18.91Z"/><path class="cls-3" d="m1147.12,514.77l.1.74h-.05c-2.85,2.21-5.24,4.39-7.26,6.66v-2.23c2.18-2.68,4.24-4.67,5.78-6l.02-.03c.48.3.95.58,1.41.85Z"/><path class="cls-3" d="m1146.84,512.73l.28,2.04c-.46-.27-.93-.55-1.41-.85-.12-.07-.23-.14-.35-.21-.26-.75-.24-1.33.09-1.75h.02c.46.27.92.52,1.38.78Z"/><path class="cls-10" d="m1146.67,511.5l.17,1.23c-.46-.25-.93-.51-1.38-.77h-.02c.2-.27.51-.46.95-.59.09.04.18.09.28.13Z"/><path class="cls-19" d="m1146.66,511.45v.05c-.09-.04-.18-.08-.27-.13-.44.13-.75.32-.95.58-.33.42-.35,1.01-.09,1.75.12.07.23.14.35.21l-.02.03c-1.53,1.33-3.59,3.32-5.78,6v-6.24c1.03-3.28,1.55-4.89,4.64-4.92.43.6.96,1.27,1.58,2.07.16.21.34.41.53.59Z"/><path class="cls-5" d="m1146.65,511.38v.08c-.18-.19-.35-.39-.52-.59-.63-.8-1.15-1.47-1.58-2.07.09,0,.19,0,.29,0l1.37,1.96.44.63Z"/><path class="cls-19" d="m1142.88,570.22c-.02.6-.04,1.2-.05,1.8-1.05-.94-2.82-4.38-2.91-6.75v-13.55c.54-.62,1.17-1.2,1.9-1.74,3.51-3.77,4.84-4.61,4.92-4.66-.27.8-.54,1.6-.79,2.4l-.6,2.26c-1.52,5.77-2.22,12.69-2.48,20.23Z"/><path class="cls-10" d="m1143.7,570.38l2.07-9.3c-.36,3.14-.58,6.33-.65,9.57-.47-.09-.95-.18-1.42-.27Z"/><path class="cls-17" d="m1145.64,584.5l-2.62-.57h-.07c-.08-1.17-.14-2.36-.19-3.55.83.27,1.71.55,2.61.82.07,1.1.16,2.2.27,3.3Z"/><path class="cls-18" d="m1145.12,570.65c-.02.86-.03,1.72-.03,2.58-.76-.14-1.53-.29-2.29-.44,0-.26.01-.52.02-.77.18.16.33.25.46.25l.42-1.89c.47.09.95.18,1.42.27Z"/><path class="cls-10" d="m1145.1,573.23c0,2.62.1,5.28.28,7.97-.9-.27-1.78-.54-2.61-.82,0-.03,0-.05,0-.08-.02-2.55,0-5.06.04-7.51.76.15,1.53.3,2.29.44Z"/><path class="cls-10" d="m1143.7,570.38l-.42,1.89c-.12,0-.28-.09-.46-.25.02-.61.03-1.2.05-1.8.27.05.55.11.82.16Z"/><path class="cls-1" d="m1142.28,498.81c.1,4.32.05,6.02.99,7.93-1.95.77-3.59,1.24-4.36-.41l-2.07-11.4c.55-2.18,3.25-.94,5.66-.56-.18,1.31-.26,2.78-.22,4.45Z"/><path class="cls-10" d="m1139.91,547.52v4.2c-4.35,4.99-2.47,12.08-2.24,14.85.12,1.49.07,2.74-.16,3.67l-.19-.04c-2.28-4.18-3.01-9.37-2.18-13.8,1.01-3.56,2.63-6.49,4.77-8.87Z"/><path class="cls-11" d="m1139.91,522.17v25.35c-2.14,2.38-3.76,5.31-4.77,8.87-.83,4.43-.11,9.62,2.18,13.8l.19.04c-.25,1.01-.72,1.64-1.39,1.77-1.3.26-3.63-7-4.92-7s-.52,3.11-.52,3.11c2.94,4.2,4.21,5.46,2.85,6.74-.5.43-1.05.68-1.65.77-9.84-4.15-6.57-13.57-3.3-17.6l1.3-8.55c1.1-11.98,3.63-20.07,10.04-27.31Z"/><path class="cls-3" d="m1139.91,519.95v2.23c-6.42,7.24-8.94,15.33-10.04,27.31l-1.3,8.55c-3.27,4.03-6.54,13.45,3.3,17.6-1.33.22-2.88-.32-4.57-1.29-6.13-3.97-4.51-9.4-1.81-15.03,1.04-2.28,1.98-4.55,2.07-6.74.85-15.31,6.98-26.04,12.35-32.63Z"/></g><path class="cls-25" d="m1160.9,536.77v10.11c.08,1.09.73,1.46,1.81,1.3l17.36-.26c.9-.29,1.34-.9,1.3-1.81v-9.85c-.27-.77-.96-1.4-2.59-1.3l-16.58.26c-.79.29-1.3.76-1.3,1.55Z"/></g><use transform="translate(1150.67 525.24) scale(.02)" xlink:href="#image"/></g><path class="cls-26" d="m1167.22,474.45v-3.72s7.46-4.95,3.73-7.43c-3.73-2.48-7.46,1.24-7.46,1.24"/><g><path class="cls-8" d="m1200.86,507.01h-.01l-1.53-1.19-5.44-4.24c0-1.36-.09-5.04-.09-5.04,3.63,2.96,6.52,5.25,6.83,5.51.89.76.89,1.52,0,1.52s1.77,2.27,1.77,1.51.89-.76,3.54,2.27c2.65,3.02-2.21,1.89-2.21,1.89l-2.86-2.23Z"/><polygon class="cls-4" points="1199.32 505.82 1200.85 507.01 1129.58 518.53 1132.47 515.42 1132.7 515.63 1199.22 505.95 1199.32 505.82"/><path class="cls-8" d="m1142.22,504.95l-8.95,9.61-1.52-1.41c.55-.58.93-1.2.47-1.2-1,0-1-1,0-2,.41-.41,4.92-5.11,10-10,0,0-1,4,0,5Z"/><path class="cls-8" d="m1129.58,518.53l-.86.92s-5.5,1.5-2.5-2.5,4-4,4-3c0,.54.89-.1,1.53-.8l1.52,1.41-.8.86-2.89,3.11Z"/></g></g><g id="fin_portant"><g><polygon class="cls-7" points="1210.02 470.46 1166.02 681.46 1159.02 687.46 1207.47 469.61 1210.02 470.46"/><polygon class="cls-20" points="1207.47 469.61 1159.02 687.46 1152.02 685.46 1200.02 468.46 1207.51 469.42 1207.47 469.61"/></g></g></svg>