<?xml version="1.0" encoding="UTF-8"?><svg xmlns="http://www.w3.org/2000/svg" xmlns:xlink="http://www.w3.org/1999/xlink" viewBox="0 0 1920 1080"><defs><style>.cls-1{fill:#f8db7e;}.cls-2{fill:#e9705e;}.cls-3{fill:#9d9d9e;}.cls-4{fill:#312b25;}.cls-5{fill:#bcbec1;}.cls-6{fill:#bcbebf;}.cls-7{fill:#a5a5a5;}.cls-8{fill:#d1d1d1;}.cls-9{fill:#e0e0e0;}.cls-10{fill:#ace3e4;}.cls-11{fill:#100d08;}.cls-12{fill:#99d1ec;}.cls-13{fill:#808285;}.cls-14{fill:#563439;}.cls-15{fill:#313132;}.cls-16{fill:#3c3d37;}.cls-17{fill:#616265;}.cls-18{fill:#76a9c2;}.cls-19{fill:#50483c;}.cls-20{fill:#78595c;}.cls-21{filter:url(#drop-shadow-2);}.cls-22{filter:url(#drop-shadow-1);}.cls-23{stroke:#666;stroke-width:.75px;}.cls-23,.cls-24,.cls-25{fill:none;stroke-miterlimit:10;}.cls-24,.cls-25{stroke:#bcbec1;}.cls-25{stroke-width:.5px;}</style><filter id="drop-shadow-1" filterUnits="userSpaceOnUse"><feOffset dx="-4" dy="2"/><feGaussianBlur result="blur" stdDeviation="5"/><feFlood flood-color="#000" flood-opacity=".69"/><feComposite in2="blur" operator="in"/><feComposite in="SourceGraphic"/></filter><filter id="drop-shadow-2" filterUnits="userSpaceOnUse"><feOffset dx="3" dy="-1"/><feGaussianBlur result="blur-2" stdDeviation="5"/><feFlood flood-color="#000" flood-opacity=".69"/><feComposite in2="blur-2" operator="in"/><feComposite in="SourceGraphic"/></filter></defs><g id="meuble_1" class="cls-22"><g><path class="cls-4" d="m1049.22,381.91v146l-111,63v-145l111-64Zm-3,41.03v-2l-3,2v2l3-2Zm0-4.37v-2l-3,2v2l3-2Zm0-3.98v-2l-3,2v2l3-2Zm0-4.36v-2l-3,2v2l3-2Zm-2,114.95v-65c-2-2-3,1-3,1v66l3-2Zm-3-98.88v-2l-3,2v2l3-2Zm0-4.36v-2l-3,2v2l3-2Zm0-3.98v-2l-3,2v2l3-2Zm0-4.37v-2l-3,2v2l3-2Zm-2,115.29v-65c-2-2-3,1-3,1v66l3-2Zm-3-99.87v-2l-3,2v2l3-2Zm0-4.36v-2l-3,2v2l3-2Zm0-3.98v-2l-3,2v2l3-2Zm0-4.37v-2l-3,2v2l3-2Zm-2,116.03v-65c-2-2-3,1-3,1v66l3-2Zm-3-99.77v-2l-3,2v2l3-2Zm0-4.37v-2l-3,2v2l3-2Zm0-3.98v-2l-3,2v2l3-2Zm0-4.36v-2l-3,2v2l3-2Zm-2,116.18v-65c-2-2-3,1-3,1v66l3-2Zm-3-100.76v-2l-3,2v2l3-2Zm0-4.37v-2l-3,2v2l3-2Zm0-3.98v-2l-3,2v2l3-2Zm0-4.36v-2l-3,2v2l3-2Zm-2,116.65v-65c-2-2-3,1-3,1v66l3-2Zm-3-100.29v-2l-3,2v2l3-2Zm0-4.37v-2l-3,2v2l3-2Zm0-3.98v-2l-3,2v2l3-2Zm0-4.37v-2l-3,2v2l3-2Zm-1.93-14c1.23-2.13,1.06-4.53-.39-5.36-1.44-.84-3.61.21-4.84,2.34-1.23,2.13-1.05,4.54.39,5.37s3.61-.22,4.84-2.35Zm-.07,130.71v-65c-2-2-3,1-3,1v66l3-2Zm-3-101.28v-2l-3,2v2l3-2Zm0-4.37v-2l-3,2v2l3-2Zm0-3.98v-2l-3,2v2l3-2Zm0-4.37v-2l-3,2v2l3-2Zm-8,114v-125l-5-3-59,34v126l5,3,59-35Z"/><polygon class="cls-19" points="957.49 408.19 968.19 402.07 977.47 396.77 1014.06 376.17 1013.79 376.01 1026.22 368.91 1049.22 381.91 938.22 445.91 914.22 432.91 916.2 431.78 957.49 408.19"/><polygon class="cls-10" points="1046.22 420.94 1046.22 422.94 1043.22 424.94 1043.22 422.94 1046.22 420.94"/><polygon class="cls-10" points="1046.22 416.57 1046.22 418.57 1043.22 420.57 1043.22 418.57 1046.22 416.57"/><polygon class="cls-10" points="1046.22 412.59 1046.22 414.59 1043.22 416.59 1043.22 414.59 1046.22 412.59"/><polygon class="cls-10" points="1046.22 408.23 1046.22 410.23 1043.22 412.23 1043.22 410.23 1046.22 408.23"/><path class="cls-11" d="m1044.22,460.18v65l-3,2v-66s1-3,3-1Z"/><polygon class="cls-10" points="1041.22 424.3 1041.22 426.3 1038.22 428.3 1038.22 426.3 1041.22 424.3"/><polygon class="cls-10" points="1041.22 419.94 1041.22 421.94 1038.22 423.94 1038.22 421.94 1041.22 419.94"/><polygon class="cls-10" points="1041.22 415.96 1041.22 417.96 1038.22 419.96 1038.22 417.96 1041.22 415.96"/><polygon class="cls-10" points="1041.22 411.59 1041.22 413.59 1038.22 415.59 1038.22 413.59 1041.22 411.59"/><path class="cls-11" d="m1039.22,463.88v65l-3,2v-66s1-3,3-1Z"/><polygon class="cls-10" points="1036.22 427.01 1036.22 429.01 1033.22 431.01 1033.22 429.01 1036.22 427.01"/><polygon class="cls-10" points="1036.22 422.65 1036.22 424.65 1033.22 426.65 1033.22 424.65 1036.22 422.65"/><polygon class="cls-10" points="1036.22 418.67 1036.22 420.67 1033.22 422.67 1033.22 420.67 1036.22 418.67"/><polygon class="cls-10" points="1036.22 414.3 1036.22 416.3 1033.22 418.3 1033.22 416.3 1036.22 414.3"/><path class="cls-11" d="m1034.22,467.33v65l-3,2v-66s1-3,3-1Z"/><polygon class="cls-10" points="1031.22 430.56 1031.22 432.56 1028.22 434.56 1028.22 432.56 1031.22 430.56"/><polygon class="cls-10" points="1031.22 426.19 1031.22 428.19 1028.22 430.19 1028.22 428.19 1031.22 426.19"/><polygon class="cls-10" points="1031.22 422.21 1031.22 424.21 1028.22 426.21 1028.22 424.21 1031.22 422.21"/><polygon class="cls-10" points="1031.22 417.85 1031.22 419.85 1028.22 421.85 1028.22 419.85 1031.22 417.85"/><path class="cls-11" d="m1029.22,471.03v65l-3,2v-66s1-3,3-1Z"/><polygon class="cls-10" points="1026.22 433.27 1026.22 435.27 1023.22 437.27 1023.22 435.27 1026.22 433.27"/><polygon class="cls-10" points="1026.22 428.9 1026.22 430.9 1023.22 432.9 1023.22 430.9 1026.22 428.9"/><polygon class="cls-10" points="1026.22 424.92 1026.22 426.92 1023.22 428.92 1023.22 426.92 1026.22 424.92"/><polygon class="cls-10" points="1026.22 420.56 1026.22 422.56 1023.22 424.56 1023.22 422.56 1026.22 420.56"/><path class="cls-11" d="m1024.22,474.21v65l-3,2v-66s1-3,3-1Z"/><polygon class="cls-10" points="1021.22 436.92 1021.22 438.92 1018.22 440.92 1018.22 438.92 1021.22 436.92"/><polygon class="cls-10" points="1021.22 432.55 1021.22 434.55 1018.22 436.55 1018.22 434.55 1021.22 432.55"/><polygon class="cls-10" points="1021.22 428.57 1021.22 430.57 1018.22 432.57 1018.22 430.57 1021.22 428.57"/><polygon class="cls-10" points="1021.22 424.2 1021.22 426.2 1018.22 428.2 1018.22 426.2 1021.22 424.2"/><path class="cls-1" d="m1018.9,406.84c1.45.83,1.62,3.23.39,5.36s-3.4,3.18-4.84,2.35-1.62-3.24-.39-5.37c1.23-2.13,3.4-3.18,4.84-2.34Z"/><path class="cls-11" d="m1019.22,477.91v65l-3,2v-66s1-3,3-1Z"/><polygon class="cls-10" points="1016.22 439.63 1016.22 441.63 1013.22 443.63 1013.22 441.63 1016.22 439.63"/><polygon class="cls-10" points="1016.22 435.26 1016.22 437.26 1013.22 439.26 1013.22 437.26 1016.22 435.26"/><polygon class="cls-10" points="1016.22 431.28 1016.22 433.28 1013.22 435.28 1013.22 433.28 1016.22 431.28"/><polygon class="cls-10" points="1016.22 426.91 1016.22 428.91 1013.22 430.91 1013.22 428.91 1016.22 426.91"/><path class="cls-5" d="m997.17,366.4l3.91,2.26,8.79,5.08,3.62,2.1.3.17-36.32,20.76-5.37,3.02-28.88-16.88,41-24,6.98,4.04,5.97,3.45Zm-5.45,15.01c0-2.76-2.91-5-6.5-5s-6.5,2.24-6.5,5,2.91,5,6.5,5,6.5-2.24,6.5-5Zm-2.51-17.56c0-1.26-1.34-2.29-2.99-2.29s-2.98,1.03-2.98,2.29,1.34,2.3,2.98,2.3,2.99-1.03,2.99-2.3Zm-34.49,18.3c0-1.27-1.33-2.3-2.98-2.3s-2.99,1.03-2.99,2.3,1.34,2.3,2.99,2.3,2.98-1.03,2.98-2.3Z"/><path class="cls-2" d="m1013.22,359.91l.46,15.61-.19.32-3.62-2.1v-.02s.35-15.81.35-15.81l3,2Zm-1,12v-9c0-2-1-1-1-1v9c0,1,1,1,1,1Z"/><path class="cls-5" d="m998.73,427.42l-45.51,25.49v116l51-28-1-116-4.49,2.51Zm9.49-9.51v125l-59,35-1-127,60-33Z"/><polygon class="cls-5" points="1008.22 417.91 948.22 450.91 944.22 448.91 1003.22 414.91 1008.22 417.91"/><polygon class="cls-13" points="1003.22 424.91 1004.22 540.91 999.22 537.91 999.2 533.36 999.06 501.85 998.78 438.36 998.76 433.11 998.73 427.42 1003.22 424.91"/><polygon class="cls-7" points="1004.22 540.91 953.22 568.91 953.22 563.5 953.29 563.5 999.22 537.91 1004.22 540.91"/><path class="cls-2" d="m1001.22,351.91v16.5l-.14.25-3.91-2.26.05-16.49,4,2Zm-1,12.52v-9c0-2-1-1-1-1v9c0,1,1,1,1,1Z"/><polygon class="cls-18" points="999.2 533.36 999.22 537.91 953.29 563.5 953.22 563.5 953.22 456.91 956.22 456.91 956.22 556.91 999.19 533.36 999.2 533.36"/><polygon class="cls-12" points="999.06 501.85 999.2 533.36 999.19 533.36 956.22 556.91 956.22 456.91 998.28 433.11 998.76 433.11 998.78 438.36 998.73 438.36 974.22 451.91 974.22 515.91 998.73 501.85 999.06 501.85"/><polygon class="cls-10" points="998.78 438.36 999.06 501.85 998.73 501.85 974.22 515.91 974.22 451.91 998.73 438.36 998.78 438.36"/><polygon class="cls-18" points="998.73 427.42 998.76 433.11 998.28 433.11 956.22 456.91 953.22 456.91 953.22 452.91 998.73 427.42"/><polygon class="cls-4" points="991.22 345.91 991.22 362.91 991.2 362.95 984.22 358.91 943.22 382.91 943.22 387.91 955.69 394.98 955.46 395.39 945.22 400.91 945.2 400.94 928.22 390.91 892.93 411.57 892.87 411.52 892.87 411.6 887.22 414.91 887.22 419.91 892.82 423.02 892.79 430.91 887.22 433.91 887.22 439.91 892.73 442.93 892.7 449.71 887.22 452.91 887.22 457.91 892.66 461.02 892.62 469.83 887.22 472.91 887.22 477.91 892.57 481.05 892.51 494.61 887.22 497.91 887.22 501.91 892.47 505 892.43 513.58 885.22 517.91 885.22 544.91 891.41 548.26 879.22 554.91 879.22 409.91 881.8 408.43 922.74 385.04 937.59 376.56 978.71 353.06 991.22 345.91"/><path class="cls-19" d="m991.22,345.91l-12.51,7.15-.63-1.1c.61-.32,1.01-.86,1.01-1.47,0-.97-1.02-1.77-2.29-1.77-.48,0-.92.11-1.29.3l-.74-1.37,5.09-2.74v-2l-13-8-.96-1.66,2.32-1.34,23,14Z"/><ellipse class="cls-7" cx="985.22" cy="381.41" rx="6.5" ry="5"/><path class="cls-7" d="m986.22,361.56c1.65,0,2.99,1.03,2.99,2.29s-1.34,2.3-2.99,2.3-2.98-1.03-2.98-2.3,1.34-2.29,2.98-2.29Z"/><polygon class="cls-4" points="979.86 342.91 979.86 344.91 974.77 347.65 966.86 351.91 966.86 349.91 979.86 342.91"/><path class="cls-11" d="m979.86,342.91l-13,7-13-7,13-8,13,8Zm-6-.5c0-2.49-3.13-4.5-7-4.5s-7,2.01-7,4.5,3.13,4.5,7,4.5,7-2.02,7-4.5Z"/><path class="cls-19" d="m978.08,351.96l.63,1.1-41.12,23.5-.37-.65,6-4v-4l-1.17-.59,4.8-2.58v-2l-10.74-6.61.75-1.22,13,7,13-7v-2l-13-8-1.04-1.81,17.08-9.85.96,1.66-13,8v2l13,7,7.91-4.26.74,1.37c-.61.32-1.01.86-1.01,1.47,0,.98,1.03,1.77,2.3,1.77.48,0,.92-.11,1.28-.3Zm-4.41,1.56c0-.97-1.03-1.76-2.3-1.76s-2.3.79-2.3,1.76,1.03,1.77,2.3,1.77,2.3-.79,2.3-1.77Z"/><path class="cls-11" d="m976.8,348.72c1.27,0,2.29.8,2.29,1.77,0,.61-.4,1.15-1.01,1.47-.36.19-.8.3-1.28.3-1.27,0-2.3-.79-2.3-1.77,0-.61.4-1.15,1.01-1.47.37-.19.81-.3,1.29-.3Z"/><polygon class="cls-7" points="977.47 396.77 968.19 402.07 955.69 394.98 943.22 387.91 943.22 382.91 972.1 399.79 977.47 396.77"/><path class="cls-11" d="m971.37,351.76c1.27,0,2.3.79,2.3,1.76s-1.03,1.77-2.3,1.77-2.3-.79-2.3-1.77,1.03-1.76,2.3-1.76Z"/><ellipse class="cls-7" cx="966.86" cy="342.41" rx="7" ry="4.5"/><polygon class="cls-5" points="955.69 394.98 968.19 402.07 957.49 408.19 945.2 400.94 945.22 400.91 955.46 395.39 955.69 394.98"/><polygon class="cls-4" points="966.86 349.91 966.86 351.91 953.86 344.91 953.86 342.91 966.86 349.91"/><polygon class="cls-4" points="962.86 352.91 962.86 354.91 949.86 361.91 949.86 359.91 962.86 352.91"/><path class="cls-11" d="m962.86,352.91l-13,7-13-7,13-8,13,8Zm-6-.5c0-2.49-3.13-4.5-7-4.5s-7,2.01-7,4.5,3.13,4.5,7,4.5,7-2.02,7-4.5Z"/><path class="cls-5" d="m957.49,408.19l-41.29,23.59-.13-.23-4.85-2.8v-6.84l-4-2v6.54l-11-6.35v-4.57c.47-.41.75-.95.75-1.53,0-1.27-1.34-2.29-2.99-2.29-.25,0-.5.03-.74.07l-.31-.21,35.29-20.66,16.98,10.03,12.29,7.25Zm-23.77,5.22c0-2.76-2.91-5-6.5-5s-6.5,2.24-6.5,5,2.91,5,6.5,5,6.5-2.24,6.5-5Zm-2.27-17.7c0-1.27-1.33-2.3-2.98-2.3s-2.99,1.03-2.99,2.3,1.34,2.29,2.99,2.29,2.98-1.03,2.98-2.29Z"/><ellipse class="cls-7" cx="949.86" cy="352.41" rx="7" ry="4.5"/><path class="cls-7" d="m951.74,379.85c1.65,0,2.98,1.03,2.98,2.3s-1.33,2.3-2.98,2.3-2.99-1.03-2.99-2.3,1.34-2.3,2.99-2.3Z"/><polygon class="cls-4" points="949.86 359.91 949.86 361.91 936.86 354.91 936.86 352.91 949.86 359.91"/><path class="cls-19" d="m948.82,343.1l1.04,1.81-13,8v2l-.75,1.22-2.26-1.39-13,8v2l13,7,1.37-.74v3.91l2,1,.37.65-14.85,8.48-.82-1.43c.61-.32,1.01-.85,1.01-1.46,0-.98-1.03-1.77-2.29-1.77-.48,0-.92.11-1.29.3l-.57-1.06,4.93-2.66v-2l-13-8-.82-1.42,38.93-22.44Zm-16.6,34.81v-2l-3-2-1,1v2l3,1.5,1-.5Z"/><polygon class="cls-7" points="948.22 450.91 949.22 577.91 944.22 574.91 944.22 448.91 948.22 450.91"/><polygon class="cls-4" points="946.85 362.74 946.85 364.74 942.05 367.32 941.22 366.91 935.22 370.91 935.22 371 933.85 371.74 933.85 369.74 946.85 362.74"/><path class="cls-11" d="m946.85,362.74l-13,7-13-7,13-8,2.26,1.39,10.74,6.61Zm-6-.5c0-2.49-3.14-4.5-7-4.5s-7,2.01-7,4.5,3.13,4.5,7,4.5,7-2.02,7-4.5Z"/><polygon class="cls-3" points="943.22 367.91 943.22 371.91 937.22 375.91 937.22 371.91 943.22 367.91"/><polygon class="cls-5" points="943.22 367.91 937.22 371.91 935.31 370.95 942.05 367.32 943.22 367.91"/><polygon class="cls-5" points="942.05 367.32 935.31 370.95 935.22 370.91 941.22 366.91 942.05 367.32"/><ellipse class="cls-7" cx="933.85" cy="362.24" rx="7" ry="4.5"/><path class="cls-19" d="m914.22,513.37v-80.46l24,13v145l-24-13v-64.54Zm14.31-52.85c1.55-.9,1.66-3.61.25-6.07-1.42-2.45-3.83-3.71-5.38-2.82-1.56.9-1.67,3.62-.25,6.07,1.42,2.46,3.82,3.72,5.38,2.82Zm-7.1,17.16v-2l-1.5-.5v2l1.5.5Zm-.07-6.59v-2l-1.5-.5v2l1.5.5Zm-.07,3.41v-2l-1.5-.5v2l1.5.5Zm-.07-6.59v-2l-1.5-.5v2l1.5.5Z"/><polygon class="cls-8" points="937.22 371.91 937.22 375.91 935.22 374.91 935.22 371 935.31 370.95 937.22 371.91"/><polygon class="cls-4" points="933.85 369.74 933.85 371.74 920.85 364.74 920.85 362.74 933.85 369.74"/><ellipse class="cls-7" cx="927.22" cy="413.41" rx="6.5" ry="5"/><polygon class="cls-3" points="932.22 375.91 932.22 377.91 931.22 378.41 931.22 376.91 932.22 375.91"/><polygon class="cls-6" points="932.22 375.91 931.22 376.91 928.22 374.91 929.22 373.91 932.22 375.91"/><polygon class="cls-8" points="931.22 376.91 931.22 378.41 928.22 376.91 928.22 374.91 931.22 376.91"/><path class="cls-7" d="m928.47,393.41c1.65,0,2.98,1.03,2.98,2.3s-1.33,2.29-2.98,2.29-2.99-1.03-2.99-2.29,1.34-2.3,2.99-2.3Z"/><path class="cls-20" d="m928.78,454.45c1.41,2.46,1.3,5.17-.25,6.07-1.56.9-3.96-.36-5.38-2.82-1.42-2.45-1.31-5.17.25-6.07,1.55-.89,3.96.37,5.38,2.82Z"/><polygon class="cls-4" points="923.71 374.96 923.71 376.96 918.78 379.62 910.71 383.96 910.71 381.96 923.71 374.96"/><path class="cls-11" d="m923.71,374.96l-13,7-13-7,13-8,13,8Zm-6-.5c0-2.48-3.14-4.5-7-4.5s-7,2.02-7,4.5,3.13,4.5,7,4.5,7-2.01,7-4.5Z"/><path class="cls-19" d="m921.92,383.61l.82,1.43-40.94,23.39-.58-1.02,6-4v-4l-.85-.43,3.85-2.07v-2l-10.83-6.66.97-1.57,13,7,13-7v-2l-13-8-.7-1.21,17.23-9.93.82,1.42-13,8v2l13,7,8.07-4.34.57,1.06c-.61.32-1.01.86-1.01,1.47,0,.97,1.03,1.76,2.3,1.76.47,0,.91-.11,1.28-.3Zm-4.42,1.57c0-.98-1.02-1.77-2.29-1.77s-2.3.79-2.3,1.77,1.03,1.76,2.3,1.76,2.29-.79,2.29-1.76Z"/><path class="cls-11" d="m920.64,380.38c1.26,0,2.29.79,2.29,1.77,0,.61-.4,1.14-1.01,1.46-.37.19-.81.3-1.28.3-1.27,0-2.3-.79-2.3-1.76,0-.61.4-1.15,1.01-1.47.37-.19.81-.3,1.29-.3Z"/><polygon class="cls-7" points="921.43 475.68 921.43 477.68 919.93 477.18 919.93 475.18 921.43 475.68"/><polygon class="cls-20" points="921.36 469.09 921.36 471.09 919.86 470.59 919.86 468.59 921.36 469.09"/><polygon class="cls-2" points="921.29 472.5 921.29 474.5 919.79 474 919.79 472 921.29 472.5"/><polygon class="cls-1" points="921.22 465.91 921.22 467.91 919.72 467.41 919.72 465.41 921.22 465.91"/><path class="cls-11" d="m915.21,383.41c1.27,0,2.29.79,2.29,1.77s-1.02,1.76-2.29,1.76-2.3-.79-2.3-1.76,1.03-1.77,2.3-1.77Z"/><polygon class="cls-7" points="916.07 431.55 916.2 431.78 914.22 432.91 914.22 434.91 911.22 433.24 911.22 428.75 916.07 431.55"/><ellipse class="cls-7" cx="910.71" cy="374.46" rx="7" ry="4.5"/><polygon class="cls-7" points="914.22 534.26 914.22 560.6 911.22 558.98 911.22 532.67 914.03 534.26 914.22 534.26"/><polygon class="cls-5" points="914.22 517.82 914.22 534.26 914.03 534.26 911.22 532.67 911.22 516.05 914.22 517.82"/><polygon class="cls-7" points="914.22 513.37 914.22 517.82 911.22 516.05 911.22 511.65 914.22 513.37"/><polygon class="cls-5" points="914.22 493.7 914.22 513.37 911.22 511.65 911.22 491.99 914.14 493.7 914.22 493.7"/><polygon class="cls-7" points="914.22 487.91 914.22 493.7 914.14 493.7 911.22 491.99 911.22 486.24 914.22 487.91"/><polygon class="cls-5" points="914.22 473.34 914.22 487.91 911.22 486.24 911.22 471.62 914.22 473.34"/><polygon class="cls-7" points="914.22 468.99 914.22 473.34 911.22 471.62 911.22 467.21 914.22 468.99"/><polygon class="cls-5" points="914.22 454.71 914.22 468.99 911.22 467.21 911.22 453.06 914.22 454.71"/><polygon class="cls-7" points="914.22 449.91 914.22 454.71 911.22 453.06 911.22 448.13 914.22 449.91"/><polygon class="cls-5" points="914.22 434.91 914.22 449.91 911.22 448.13 911.22 433.24 914.22 434.91"/><path class="cls-2" d="m911.22,558.98v13.93l-4-2v-14.1l4,2.17Zm-1,12.16v-9c0-2-1-1-1-1v9c0,1,1,1,1,1Z"/><path class="cls-2" d="m911.22,532.67v26.31l-4-2.17v-26.41l4,2.27Zm-1,14.92v-9c0-2-1-1-1-1v9c0,1,1,1,1,1Z"/><path class="cls-2" d="m911.22,516.05v16.62l-4-2.27v-16.7l2.03,1.2-.03.03v9c0,1,1,1,1,1v-9c0-.18-.01-.34-.02-.48l1.02.6Z"/><path class="cls-2" d="m911.22,511.65v4.4l-1.02-.6c-.14-1.19-.8-.68-.95-.55l-2.03-1.2v-4.34l4,2.29Z"/><path class="cls-2" d="m911.22,491.99v19.66l-4-2.29v-19.72l4,2.35Zm-1,11.05v-9c0-2-1-1-1-1v9c0,1,1,1,1,1Z"/><polygon class="cls-2" points="911.22 486.24 911.22 491.99 907.22 489.64 907.22 484.02 911.22 486.24"/><path class="cls-2" d="m911.22,471.62v14.62l-4-2.22v-14.68l2,1.14v8.9c0,1,1,1,1,1v-9c0-.13,0-.24-.01-.34l1.01.58Z"/><path class="cls-2" d="m911.22,467.21v4.41l-1.01-.58c-.11-1.54-.99-.66-.99-.66v.1l-2-1.14v-4.52l4,2.39Z"/><path class="cls-2" d="m911.22,453.06v14.15l-4-2.39v-13.95l2,1.1v4.32c0,1,1,1,1,1v-4.77l1,.54Z"/><path class="cls-2" d="m911.22,448.13v4.93l-1-.54v-4.23c0-.35-.03-.61-.08-.8l1.08.64Z"/><path class="cls-2" d="m911.22,433.24v14.89l-1.08-.64c-.14-.52-.44-.49-.66-.38l-2.26-1.35v-14.74l2,1.11v1.5c0,1,1,1,1,1v-1.94l1,.55Z"/><path class="cls-2" d="m911.22,428.75v4.49l-1-.55v-4.51l1,.57Z"/><path class="cls-2" d="m911.22,421.91v6.84l-1-.57v-2.55c0-2-1-1-1-1v2.97l-2-1.15v-6.54l4,2Z"/><polygon class="cls-4" points="910.71 381.96 910.71 383.96 897.71 376.96 897.71 374.96 910.71 381.96"/><path class="cls-7" d="m910.22,538.59v9s-1,0-1-1v-9s1-1,1,1Z"/><path class="cls-5" d="m910.22,515.93v9s-1,0-1-1v-9l.03-.03.95.55c.01.14.02.3.02.48Z"/><path class="cls-5" d="m910.22,494.04v9s-1,0-1-1v-9s1-1,1,1Z"/><path class="cls-5" d="m910.22,471.38v9s-1,0-1-1v-8.9l.99.56c.01.1.01.21.01.34Z"/><path class="cls-5" d="m910.22,452.52v4.77s-1,0-1-1v-4.32l1,.55Z"/><path class="cls-7" d="m910.22,448.29v4.23l-1-.55v-4.68s.11-.11.26-.18l.66.38c.05.19.08.45.08.8Z"/><path class="cls-5" d="m910.22,432.69v1.94s-1,0-1-1v-1.5l1,.56Z"/><path class="cls-7" d="m910.22,428.18v4.51l-1-.56v-4.53l1,.58Z"/><path class="cls-5" d="m910.22,425.63v2.55l-1-.58v-2.97s1-1,1,1Z"/><path class="cls-7" d="m910.21,471.04l-.99-.56v-.1s.88-.88.99.66Z"/><path class="cls-7" d="m910.2,515.45l-.95-.55c.15-.13.81-.64.95.55Z"/><path class="cls-5" d="m910.14,447.49l-.66-.38c.22-.11.52-.14.66.38Z"/><path class="cls-2" d="m907.22,445.76l2.26,1.35c-.15.07-.26.18-.26.18v4.68l-2-1.1v-5.11Z"/><path class="cls-2" d="m909.22,427.6v4.53l-2-1.11v-4.57l2,1.15Z"/><polygon class="cls-7" points="907.22 530.4 907.22 556.81 896.22 550.86 896.22 524.15 907.22 530.4"/><polygon class="cls-5" points="907.22 513.7 907.22 530.4 896.22 524.15 896.22 511.31 899.66 509.24 907.22 513.7"/><polygon class="cls-7" points="899.66 509.24 896.22 507.21 896.22 503.06 907.22 509.36 907.22 513.7 899.66 509.24"/><polygon class="cls-5" points="907.22 489.64 907.22 509.36 896.22 503.06 896.22 492.3 903.62 487.68 903.69 487.57 907.22 489.64"/><polygon class="cls-7" points="907.22 484.02 907.22 489.64 903.69 487.57 896.22 483.19 896.22 477.91 907.22 484.02"/><polygon class="cls-5" points="907.22 469.34 907.22 484.02 896.22 477.91 896.22 467.77 900.35 465.41 907.22 469.34"/><polygon class="cls-7" points="900.35 465.41 896.22 463.05 896.22 458.27 907.22 464.82 907.22 469.34 900.35 465.41"/><polygon class="cls-5" points="907.22 450.87 907.22 464.82 896.22 458.27 896.22 447.66 898.71 446.21 907.22 450.87"/><polygon class="cls-7" points="898.71 446.21 896.22 444.84 896.22 439.24 907.22 445.76 907.22 450.87 898.71 446.21"/><polygon class="cls-5" points="907.22 431.02 907.22 445.76 896.22 439.24 896.22 429.06 900.02 427.02 907.22 431.02"/><polygon class="cls-7" points="900.02 427.02 896.22 424.91 896.22 420.1 907.22 426.45 907.22 431.02 900.02 427.02"/><polygon class="cls-4" points="906.36 384.68 906.36 386.68 893.36 393.68 893.36 391.68 906.36 384.68"/><path class="cls-11" d="m906.36,384.68l-13,7-13-7,13-8,13,8Zm-6-.5c0-2.48-3.14-4.5-7-4.5s-7,2.02-7,4.5,3.13,4.5,7,4.5,7-2.01,7-4.5Z"/><polygon class="cls-4" points="903.69 487.57 903.62 487.68 896.22 492.3 896.22 483.19 903.69 487.57"/><polygon class="cls-15" points="900.35 465.41 896.22 467.77 896.22 463.05 900.35 465.41"/><polygon class="cls-15" points="900.02 427.02 896.22 429.06 896.22 424.91 900.02 427.02"/><polygon class="cls-15" points="899.66 509.24 896.22 511.31 896.22 507.21 899.66 509.24"/><ellipse class="cls-7" cx="893.36" cy="384.18" rx="7" ry="4.5"/><polygon class="cls-15" points="896.22 444.84 898.71 446.21 896.22 447.66 896.22 444.84"/><path class="cls-7" d="m893.98,411.71c1.65,0,2.99,1.02,2.99,2.29,0,.58-.28,1.12-.75,1.53v-1.62l-2.98-2.13c.24-.04.49-.07.74-.07Z"/><path class="cls-2" d="m896.22,550.86v13.05l-4-2,.06-13.18,3.94,2.13Zm-1,10.99v-9c0-2-1-1-1-1v9c0,1,1,1,1,1Z"/><path class="cls-2" d="m896.22,524.15v26.71l-3.94-2.13.11-26.75,3.83,2.17Zm-1,14.89v-9c0-2-1-1-1-1v9c0,1,1,1,1,1Z"/><path class="cls-2" d="m896.22,511.31v12.84l-3.83-2.17.04-8.4,1.79-1.07v1.98c0,1,1,1,1,1v-3.58l1-.6Z"/><path class="cls-2" d="m896.22,507.21v4.1l-1,.6v-5.29l1,.59Z"/><path class="cls-2" d="m896.22,503.06v4.15l-1-.59v-.13c0-2-1-1-1-1v.55l-1.75-1.04v-4.08s3.75,2.14,3.75,2.14Z"/><polygon class="cls-2" points="896.22 492.3 896.22 503.06 892.48 500.92 892.51 494.61 895.26 492.9 896.22 492.3"/><path class="cls-2" d="m896.22,483.19v9.11l-.96.6-.04-.06v-9c0-.75-.14-1.08-.32-1.2l.1-.17,1.22.72Z"/><polygon class="cls-2" points="896.22 477.91 896.22 483.19 895 482.47 892.57 481.05 892.59 475.89 896.22 477.91"/><path class="cls-2" d="m896.22,467.77v10.14l-3.63-2.02.03-6.06,1.6-.92v1.03c0,1,1,1,1,1v-2.6l1-.57Z"/><path class="cls-2" d="m896.22,463.05v4.72l-1,.57v-5.86l1,.57Z"/><path class="cls-2" d="m896.22,458.27v4.78l-1-.57v-.54c0-2-1-1-1-1v.97l-1.56-.89.02-4.86,3.54,2.11Z"/><path class="cls-2" d="m896.22,447.66v10.61l-3.54-2.11.02-6.45,2.47-1.44s.05,0,.05,0v-.04l1-.58Z"/><path class="cls-2" d="m896.22,444.84v2.82l-1,.58v-3.95l1,.55Z"/><path class="cls-2" d="m896.22,439.24v5.6l-1-.55v-5.01c0-.27-.02-.49-.05-.66l1.05.62Z"/><path class="cls-2" d="m896.22,429.06v10.18l-1.05-.62c-.15-.77-.56-.62-.79-.47l-1.62-.96.03-6.28,3.43-1.85Z"/><path class="cls-2" d="m896.22,424.91v4.15l-3.43,1.85.03-7.89,1.4.78v.39c0,1,1,1,1,1v-.84l1,.56Z"/><path class="cls-2" d="m896.22,420.1v4.81l-1-.56v-4.83l1,.58Z"/><path class="cls-2" d="m896.22,415.53v4.57l-1-.58v-3.43c.39-.13.73-.33,1-.56Z"/><path class="cls-2" d="m896.22,413.91v1.62c-.27.23-.61.43-1,.56-.03-1.87-1-.9-1-.9v1.1c-.08.01-.16.01-.24.01-.4,0-.78-.06-1.13-.17l.02-4.25c.12-.04.24-.07.37-.1l2.98,2.13Z"/><path class="cls-2" d="m895.22,492.84l.04.06-2.75,1.71.06-13.56,2.43,1.42-.1.17c-.29-.19-.68.2-.68.2v9c0,1,1,1,1,1Z"/><path class="cls-7" d="m895.22,530.04v9s-1,0-1-1v-9s1-1,1,1Z"/><path class="cls-5" d="m895.22,511.91v3.58s-1,0-1-1v-1.98l1-.6Z"/><path class="cls-15" d="m895.22,506.62v5.29l-1,.6v-6.47l1,.58Z"/><path class="cls-7" d="m895.22,506.49v.13l-1-.58v-.55s1-1,1,1Z"/><path class="cls-15" d="m895.22,483.84v9s-1,0-1-1v-9s.39-.39.68-.2c.18.12.32.45.32,1.2Z"/><path class="cls-5" d="m895.22,468.34v2.6s-1,0-1-1v-1.03l1-.57Z"/><path class="cls-15" d="m895.22,462.48v5.86l-1,.57v-7l1,.57Z"/><path class="cls-7" d="m895.22,461.94v.54l-1-.57v-.97s1-1,1,1Z"/><path class="cls-15" d="m895.22,448.24v.04s-.02,0-.05,0l.05-.03Z"/><path class="cls-15" d="m895.22,444.29v3.95l-.05.03c-.21-.01-.95-.13-.95-.99v-3.53l1,.54Z"/><path class="cls-7" d="m895.22,439.28v5.01l-1-.54v-5.47s.06-.06.16-.13l.79.47c.03.17.05.39.05.66Z"/><path class="cls-15" d="m895.22,424.35v.84s-1,0-1-1v-.39l1,.55Z"/><path class="cls-7" d="m895.22,419.52v4.83l-1-.55v-4.85l1,.57Z"/><path class="cls-5" d="m895.22,416.19v3.33l-1-.57v-2.66c.36-.02.69-.09,1-.2v.1Z"/><path class="cls-2" d="m895.17,448.27l-2.47,1.44.03-6.78,1.49.82v3.53c0,.86.74.98.95.99Z"/><path class="cls-5" d="m895.17,438.62l-.79-.47c.23-.15.64-.3.79.47Z"/><path class="cls-7" d="m894.22,415.19s.97-.97,1,.9c-.31.11-.64.18-1,.2v-1.1Z"/><path class="cls-2" d="m892.76,437.19l1.62.96c-.1.07-.16.13-.16.13v5.47l-1.49-.82.03-5.74Z"/><path class="cls-2" d="m894.22,506.04v6.47l-1.79,1.07.04-8.58,1.75,1.04Z"/><path class="cls-2" d="m894.22,461.91v7l-1.6.92.04-8.81,1.56.89Z"/><path class="cls-2" d="m894.22,418.95v4.85l-1.4-.78.02-4.87,1.38.8Z"/><path class="cls-2" d="m894.22,416.29v2.66l-1.38-.8v-2.02c.36.11.74.17,1.14.17.08,0,.16,0,.24-.01Z"/><polygon class="cls-4" points="893.36 391.68 893.36 393.68 880.36 386.68 880.36 384.68 893.36 391.68"/><polygon class="cls-19" points="892.66 375.47 893.36 376.68 880.36 384.68 880.36 386.68 879.39 388.25 877.22 386.91 864.22 394.91 864.22 396.91 877.22 403.91 879.22 402.83 879.22 406.41 881.22 407.41 881.8 408.43 879.22 409.91 857.22 395.91 892.66 375.47"/><path class="cls-5" d="m887.22,414.91l5.65-3.31v.28c-1.1.33-1.87,1.15-1.87,2.12s.76,1.79,1.85,2.13v2.02s-5.63-3.24-5.63-3.24Z"/><path class="cls-7" d="m892.87,411.88l-.02,4.25c-1.09-.34-1.85-1.17-1.85-2.13s.77-1.79,1.87-2.12Z"/><polygon class="cls-7" points="892.84 418.15 892.82 423.02 887.22 419.91 887.22 414.91 892.84 418.15"/><polygon class="cls-5" points="892.79 430.91 892.76 437.19 887.22 433.91 892.79 430.91"/><polygon class="cls-7" points="892.76 437.19 892.73 442.93 887.22 439.91 887.22 433.91 892.76 437.19"/><polygon class="cls-5" points="892.7 449.71 892.68 456.16 887.22 452.91 892.7 449.71"/><polygon class="cls-7" points="892.68 456.16 892.66 461.02 887.22 457.91 887.22 452.91 892.68 456.16"/><polygon class="cls-5" points="892.62 469.83 892.59 475.89 887.22 472.91 892.62 469.83"/><polygon class="cls-7" points="892.59 475.89 892.57 481.05 887.22 477.91 887.22 472.91 892.59 475.89"/><polygon class="cls-5" points="892.51 494.61 892.48 500.92 887.22 497.91 892.51 494.61"/><polygon class="cls-7" points="892.48 500.92 892.47 505 887.22 501.91 887.22 497.91 892.48 500.92"/><polygon class="cls-5" points="885.22 517.91 892.43 513.58 892.39 521.98 885.22 517.91"/><polygon class="cls-7" points="891.41 548.26 885.22 544.91 885.22 517.91 892.39 521.98 892.28 548.73 891.41 548.26"/><polygon class="cls-4" points="890.22 394.91 890.22 396.91 886.37 398.98 885.22 398.41 879.22 402.41 879.22 402.83 877.22 403.91 877.22 401.91 890.22 394.91"/><path class="cls-11" d="m890.22,394.91l-13,7-13-7,13-8,2.17,1.34,10.83,6.66Zm-6-.5c0-2.49-3.13-4.5-7-4.5s-7,2.01-7,4.5,3.13,4.5,7,4.5,7-2.01,7-4.5Z"/><polygon class="cls-8" points="887.22 399.41 887.22 403.41 881.22 407.41 881.22 403.41 887.22 399.41"/><polygon class="cls-6" points="887.22 399.41 881.22 403.41 879.63 402.61 886.37 398.98 887.22 399.41"/><polygon class="cls-6" points="886.37 398.98 879.63 402.61 879.22 402.41 885.22 398.41 886.37 398.98"/><ellipse class="cls-7" cx="877.22" cy="394.41" rx="7" ry="4.5"/><polygon class="cls-3" points="881.22 403.41 881.22 407.41 879.22 406.41 879.22 402.83 879.63 402.61 881.22 403.41"/><polygon class="cls-3" points="879.63 402.61 879.22 402.83 879.22 402.41 879.63 402.61"/><path class="cls-19" d="m877.72,415.1v-2.69l-16-9-2,1v26l16,9h2v-24.31Zm1.5-5.19v145l-1.48-.9.26-.43.32-44.86c-1-3-2-1-2-1l-.24,44.48-.35.58-1.8-1.09.07-.11.32-44.86c-1-3-2-1-2-1l-.24,44.48-.16.27-1.59-.97.27-.45.32-44.87c-1-3-2-1-2-1l.3,45.23-.18.3-1.89-1.15.15-.24.32-44.87c-1-3-2-1-2-1l-.24,44.48-.25.41-1.83-1.12.32-44.77c-1-3-2-1-2-1l-.24,44.48-.05.09-1.59-.97.16-.27.32-44.87c-1-3-2-1-2-1l-.24,44.48-.26.43-1.5-.91,1-145,22,14Zm-3.62,33.5v-1.75l-2.63-1.75h-1.75v1.75l2.62,1.75h1.76Zm-.42,3.47v-1.75l-2.62-1.75h-1.75v1.75l2.62,1.75h1.75Zm-1.96,8.26c.72-.41.85-1.52.3-2.48s-1.58-1.4-2.3-.98c-.72.41-.85,1.52-.3,2.48s1.58,1.4,2.3.98Zm-2.38,18.78c2.45-1.41,2.48-5.93.08-10.09s-6.33-6.39-8.77-4.98c-2.45,1.42-2.48,5.93-.08,10.09s6.33,6.39,8.77,4.98Zm-.06,18.31c2.44-1.41,2.48-5.92.08-10.08s-6.33-6.39-8.78-4.98c-2.44,1.41-2.48,5.93-.08,10.09,2.41,4.16,6.33,6.39,8.78,4.97Zm-3.88-51.57c.38-.22.45-.8.16-1.3s-.83-.73-1.2-.51c-.38.22-.45.8-.16,1.3s.83.73,1.2.51Zm-4.67-.77c.59-.34.7-1.25.25-2.03-.46-.78-1.3-1.14-1.88-.8-.59.34-.7,1.25-.25,2.03s1.29,1.14,1.88.8Z"/><path class="cls-11" d="m878.32,508.72l-.32,44.86-.26.43-2.01-1.23.35-.58.24-44.48s1-2,2,1Z"/><polygon class="cls-20" points="877.72 438.03 877.72 439.41 875.72 439.41 875.72 413.41 877.72 412.41 877.72 415.1 876.72 415.41 876.72 421.41 877.72 420.41 877.72 432.72 876.72 433.03 876.72 439.03 877.72 438.03"/><polygon class="cls-14" points="877.72 432.72 877.72 438.03 876.72 439.03 876.72 433.03 877.72 432.72"/><polygon class="cls-14" points="877.72 415.1 877.72 420.41 876.72 421.41 876.72 415.41 877.72 415.1"/><polygon class="cls-14" points="877.72 412.41 875.72 413.41 859.72 404.41 861.72 403.41 877.72 412.41"/><polygon class="cls-4" points="877.22 401.91 877.22 403.91 864.22 396.91 864.22 394.91 877.22 401.91"/><path class="cls-18" d="m875.72,413.41v26l-16-9v-26l16,9Zm-2,23v-22l-13-8v23l13,7Z"/><rect class="cls-3" x="873.84" y="441.66" width="1.76" height="1.75"/><polygon class="cls-5" points="875.6 441.66 873.84 441.66 871.22 439.91 872.97 439.91 875.6 441.66"/><rect class="cls-3" x="873.43" y="445.13" width="1.75" height="1.75"/><polygon class="cls-5" points="875.18 445.13 873.43 445.13 870.81 443.38 872.56 443.38 875.18 445.13"/><path class="cls-11" d="m874.32,506.72l-.32,44.86-.07.11-2.01-1.22.16-.27.24-44.48s1-2,2,1Z"/><polygon class="cls-8" points="873.84 441.66 873.84 443.41 871.22 441.66 871.22 439.91 873.84 441.66"/><path class="cls-12" d="m873.72,414.41v22l-13-7v-23l13,8Zm-4,13v-14l-8-5v15l8,4Z"/><path class="cls-1" d="m873.52,452.66c.55.96.42,2.07-.3,2.48-.72.42-1.75-.02-2.3-.98s-.42-2.07.3-2.48c.72-.42,1.75.02,2.3.98Z"/><polygon class="cls-8" points="873.43 445.13 873.43 446.88 870.81 445.13 870.81 443.38 873.43 445.13"/><path class="cls-1" d="m870.92,463.83c2.4,4.16,2.37,8.68-.08,10.09-2.44,1.41-6.37-.82-8.77-4.98s-2.37-8.67.08-10.09c2.44-1.41,6.37.82,8.77,4.98Z"/><path class="cls-1" d="m870.86,482.15c2.4,4.16,2.36,8.67-.08,10.08-2.45,1.42-6.37-.81-8.78-4.97-2.4-4.16-2.36-8.68.08-10.09,2.45-1.41,6.38.82,8.78,4.98Z"/><path class="cls-11" d="m870.92,504.18l-.32,44.87-.27.45-1.29-.79.18-.3-.3-45.23s1-2,2,1Z"/><polygon class="cls-10" points="869.72 413.41 869.72 427.41 861.72 423.41 861.72 408.41 869.72 413.41"/><path class="cls-11" d="m867.62,502.45l-.32,44.87-.15.24-2.02-1.22.25-.41.24-44.48s1-2,2,1Z"/><path class="cls-1" d="m867.06,439.36c.29.5.22,1.08-.16,1.3-.37.22-.91-.01-1.2-.51s-.22-1.08.16-1.3c.37-.22.91.01,1.2.51Z"/><path class="cls-11" d="m863.62,500.45l-.32,44.77-1.97-1.2.05-.09.24-44.48s1-2,2,1Z"/><path class="cls-1" d="m862.48,437.86c.45.78.34,1.69-.25,2.03s-1.43-.02-1.88-.8-.34-1.69.25-2.03c.58-.34,1.42.02,1.88.8Z"/><path class="cls-11" d="m860.22,497.91l-.32,44.87-.16.27-2.02-1.23.26-.43.24-44.48s1-2,2,1Z"/></g></g><g id="suite_meuble1"><g><g><polygon class="cls-10" points="923.35 529.28 923.43 529.28 929.26 532.8 929.35 532.8 929.35 539.53 922.35 535.53 922.35 484.53 929.35 488.53 929.35 495.53 923.47 491.84 923.35 491.84 923.35 504.83 923.35 516.56 923.35 529.28"/><polygon class="cls-10" points="929.35 520.13 929.35 532.8 929.26 532.8 923.43 529.28 923.35 529.28 923.35 516.56 923.43 516.56 929.22 520.13 929.35 520.13"/><polygon class="cls-10" points="929.35 508.53 929.35 520.13 929.22 520.13 923.43 516.56 923.35 516.56 923.35 504.83 923.39 504.83 929.35 508.53"/><polygon class="cls-10" points="929.35 495.53 929.35 508.53 923.39 504.83 923.35 504.83 923.35 491.84 923.47 491.84 929.35 495.53"/></g><g><polygon class="cls-25" points="929.35 495.53 929.35 488.53 922.35 484.53 922.35 535.53 929.35 539.53 929.35 532.8 929.35 520.13 929.35 508.53 929.35 495.53"/><polyline class="cls-23" points="923.35 486.53 923.35 491.84 923.35 504.83 923.35 516.56 923.35 529.28 923.35 534.53"/><line class="cls-24" x1="923.43" y1="529.28" x2="929.26" y2="532.8"/><line class="cls-24" x1="923.43" y1="516.56" x2="929.22" y2="520.13"/><line class="cls-24" x1="923.39" y1="504.83" x2="929.35" y2="508.53"/><line class="cls-24" x1="923.47" y1="491.84" x2="929.35" y2="495.53"/></g></g></g><g id="meuble2" class="cls-21"><g><path class="cls-5" d="m1267.88,712.18v148l-7,4.5v-148.5l7-4Zm-1,146l-1-142-3,2v143l4-3Z"/><polygon class="cls-8" points="1267.88 712.18 1260.88 716.18 1255.88 713.18 1262.88 709.18 1267.88 712.18"/><polygon class="cls-7" points="1265.88 716.18 1266.88 858.18 1262.88 861.18 1262.88 718.18 1265.88 716.18"/><polygon class="cls-5" points="1260.88 716.18 1260.88 864.68 1255.88 861.18 1255.88 860.34 1258.88 862.18 1259.04 840.03 1260.24 839.33 1259.57 764.78 1259.57 764.59 1259.84 725.99 1259.88 720.18 1256.24 717.59 1256.22 724.07 1255.88 723.87 1255.88 713.18 1260.88 716.18"/><polygon class="cls-16" points="1259.57 764.78 1260.24 839.33 1259.04 840.03 1259.57 764.78"/><polygon class="cls-7" points="1259.88 720.18 1259.84 725.99 1259.57 764.59 1259.22 725.91 1256.22 724.07 1256.24 717.59 1259.88 720.18"/><polygon class="cls-16" points="1259.57 764.59 1259.57 764.78 1259.04 840.03 1255.88 841.86 1255.88 812.68 1256.2 727.64 1259.22 725.91 1259.57 764.59"/><polygon class="cls-9" points="1259.22 725.91 1256.2 727.64 1256.22 724.07 1259.22 725.91"/><polygon class="cls-7" points="1259.04 840.03 1258.88 862.18 1255.88 860.34 1255.88 841.86 1259.04 840.03"/><polygon class="cls-9" points="1256.22 724.07 1256.2 727.64 1255.88 727.82 1255.88 723.87 1256.22 724.07"/><polygon class="cls-16" points="1256.2 727.64 1255.88 812.68 1255.88 727.82 1256.2 727.64"/><polygon class="cls-16" points="1255.88 727.82 1255.88 812.68 1255.77 841.93 1187.63 881.54 1187.32 767.09 1221.88 747.3 1221.88 793.68 1221.7 841.23 1221.88 841.34 1221.88 842.18 1226.88 845.68 1233.88 841.18 1233.88 740.42 1255.88 727.82"/><polygon class="cls-9" points="1255.88 723.87 1255.88 727.82 1233.88 740.42 1233.88 710.42 1255.88 723.87"/><polygon class="cls-16" points="1233.88 740.42 1233.88 841.18 1226.88 845.68 1226.88 744.43 1228.88 743.29 1228.88 842.18 1232.88 839.18 1232.19 741.39 1233.88 740.42"/><polygon class="cls-9" points="1233.88 710.42 1233.88 740.42 1232.19 741.39 1231.97 709.25 1233.88 710.42"/><polygon class="cls-5" points="1233.88 693.18 1233.88 710.42 1231.97 709.25 1231.88 697.18 1228.88 699.18 1228.88 707.37 1226.88 706.15 1226.88 697.18 1233.88 693.18"/><polygon class="cls-8" points="1233.88 693.18 1226.88 697.18 1221.88 694.18 1228.88 690.18 1233.88 693.18"/><polygon class="cls-16" points="1232.19 741.39 1232.88 839.18 1228.88 842.18 1228.88 743.29 1232.19 741.39"/><polygon class="cls-9" points="1231.97 709.25 1232.19 741.39 1228.88 743.29 1228.88 707.37 1231.97 709.25"/><polygon class="cls-7" points="1231.97 709.25 1228.88 707.37 1228.88 699.18 1231.88 697.18 1231.97 709.25"/><polygon class="cls-9" points="1228.88 707.37 1228.88 743.29 1226.88 744.43 1226.88 706.15 1228.88 707.37"/><polygon class="cls-16" points="1226.88 744.43 1226.88 845.68 1221.88 842.18 1221.88 841.34 1224.88 843.18 1225.57 745.18 1226.88 744.43"/><polygon class="cls-9" points="1226.88 706.15 1226.88 744.43 1225.57 745.18 1225.85 705.52 1226.88 706.15"/><polygon class="cls-5" points="1226.88 697.18 1226.88 706.15 1225.85 705.52 1225.88 701.18 1222.24 698.59 1222.22 704.49 1221.88 704.68 1221.88 694.18 1226.88 697.18"/><polygon class="cls-7" points="1225.88 701.18 1225.85 705.52 1223.22 703.91 1222.22 704.49 1222.24 698.59 1225.88 701.18"/><polygon class="cls-9" points="1223.22 703.91 1225.85 705.52 1225.57 745.18 1222.06 747.2 1222.22 704.49 1223.22 703.91"/><polygon class="cls-16" points="1225.57 745.18 1224.88 843.18 1221.88 841.34 1221.88 793.68 1222.06 747.2 1225.57 745.18"/><polygon class="cls-9" points="1222.22 704.49 1222.06 747.2 1221.88 747.3 1221.88 704.68 1222.22 704.49"/><polygon class="cls-16" points="1222.06 747.2 1221.88 793.68 1221.88 747.3 1222.06 747.2"/><polygon class="cls-9" points="1221.88 704.68 1221.88 747.3 1187.32 767.09 1187.22 767.09 1187.22 756.91 1182.22 753.91 1175.22 757.91 1175.22 762.11 1155.88 751.07 1155.88 742.74 1221.88 704.68"/><path class="cls-5" d="m1187.22,767.09v137.82l-7,4.5v-148.5l7-4v10.18Zm-1,135.82l-1-142-3,2v143l4-3Z"/><polygon class="cls-8" points="1187.22 756.91 1180.22 760.91 1175.22 757.91 1182.22 753.91 1187.22 756.91"/><polygon class="cls-7" points="1185.22 760.91 1186.22 902.91 1182.22 905.91 1182.22 762.91 1185.22 760.91"/><polygon class="cls-5" points="1180.22 760.91 1180.22 909.41 1175.22 905.91 1175.22 905.07 1178.22 906.91 1179.22 764.91 1175.58 762.32 1175.22 762.11 1175.22 757.91 1180.22 760.91"/><polygon class="cls-7" points="1179.22 764.91 1178.22 906.91 1175.22 905.07 1175.22 857.41 1175.58 762.32 1179.22 764.91"/><polygon class="cls-5" points="1175.58 762.32 1175.22 831.31 1175.22 762.11 1175.58 762.32"/><polygon class="cls-17" points="1175.22 762.11 1175.22 831.31 1174.97 879.22 1155.88 868.43 1155.88 751.07 1175.22 762.11"/><polygon class="cls-5" points="1155.88 868.43 1155.88 884.18 1148.88 888.68 1148.88 797.95 1149.22 864.66 1150.88 865.6 1150.88 885.18 1154.88 882.18 1154.78 867.8 1155.88 868.43"/><polygon class="cls-17" points="1155.88 751.07 1155.88 868.43 1154.78 867.8 1153.95 749.97 1155.88 751.07"/><polygon class="cls-9" points="1155.88 742.74 1155.88 751.07 1153.95 749.97 1153.91 743.88 1155.88 742.74"/><polygon class="cls-5" points="1155.88 736.18 1155.88 742.74 1153.91 743.88 1153.88 740.18 1150.88 742.18 1150.88 745.63 1148.88 746.78 1148.88 740.18 1155.88 736.18"/><polygon class="cls-8" points="1155.88 736.18 1148.88 740.18 1143.88 737.18 1150.88 733.18 1155.88 736.18"/><polygon class="cls-7" points="1154.78 867.8 1154.88 882.18 1150.88 885.18 1150.88 865.6 1154.78 867.8"/><polygon class="cls-17" points="1153.95 749.97 1154.78 867.8 1150.88 865.6 1150.88 748.22 1153.95 749.97"/><polygon class="cls-9" points="1153.91 743.88 1153.95 749.97 1150.88 748.22 1150.88 745.63 1153.91 743.88"/><polygon class="cls-7" points="1153.88 740.18 1153.91 743.88 1150.88 745.63 1150.88 742.18 1153.88 740.18"/><polygon class="cls-17" points="1150.88 748.22 1150.88 865.6 1149.22 864.66 1148.88 797.95 1148.88 747.08 1150.88 748.22"/><polygon class="cls-9" points="1150.88 745.63 1150.88 748.22 1148.88 747.08 1148.88 746.78 1150.88 745.63"/><polygon class="cls-5" points="1148.88 797.95 1148.88 888.68 1143.88 885.18 1143.88 884.34 1146.88 886.18 1147.88 744.18 1144.24 741.59 1143.88 836.68 1143.88 737.18 1148.88 740.18 1148.88 746.78 1148.62 746.93 1148.88 797.95"/><polygon class="cls-17" points="1148.88 747.08 1148.88 797.95 1148.62 746.93 1148.88 747.08"/><polygon class="cls-9" points="1148.88 746.78 1148.88 747.08 1148.62 746.93 1148.88 746.78"/><polygon class="cls-7" points="1147.88 744.18 1146.88 886.18 1143.88 884.34 1143.88 836.68 1144.24 741.59 1147.88 744.18"/></g></g></svg>